<?xml version="1.0" encoding="UTF-8" standalone="no"?>
<svg width="36px" height="36px" viewBox="0 0 36 36" version="1.1" xmlns="http://www.w3.org/2000/svg" xmlns:xlink="http://www.w3.org/1999/xlink">
    <!-- Generator: Sketch 46.2 (44496) - http://www.bohemiancoding.com/sketch -->
    <title>bdxq_icon</title>
    <desc>Created with Sketch.</desc>
    <defs></defs>
    <g id="Page-1-Copy-2" stroke="none" stroke-width="1" fill="none" fill-rule="evenodd">
        <g id="弹窗－上传头像" transform="translate(-30.000000, -491.000000)">
            <g id="我的" transform="translate(0.000000, 128.000000)">
                <g id="Group-9" transform="translate(30.000000, 360.000000)">
                    <g id="楼盘_new" transform="translate(0.000000, 3.000000)">
                        <rect id="Rectangle" x="0" y="0" width="36" height="36"></rect>
                        <path d="M34.0320721,30.0689864 L30.3465946,30.0689864 L30.3465946,7.10807588 C30.3465946,5.39863415 28.9351351,4 27.210018,4 L8.78263063,4 C7.05751351,4 5.64605405,5.39863415 5.64605405,7.10807588 L5.64605405,30.0689864 L1.96057658,30.0689864 C1.43127928,30.0689864 1,30.4963469 1,31.0208347 C1,31.5453225 1.43127928,31.9726829 1.96057658,31.9726829 L34.0320721,31.9726829 C34.5613694,31.9726829 34.9926486,31.5453225 34.9926486,31.0208347 C34.9926486,30.4963469 34.5613694,30.0689864 34.0320721,30.0689864 Z M28.4254414,30.0689864 L7.5476036,30.0689864 L7.5476036,7.10807588 C7.5476036,6.44760976 8.0965045,5.90369648 8.76302703,5.90369648 L27.1904144,5.90369648 C27.8569369,5.90369648 28.4058378,6.44760976 28.4058378,7.10807588 L28.4058378,30.0689864 L28.4254414,30.0689864 Z M20.3683604,20.2979729 L15.6046847,20.2979729 C14.3108468,20.2979729 13.2522523,21.3469485 13.2522523,22.6290298 L13.2522523,26.650103 C13.2522523,27.1745908 13.6835315,27.6019512 14.2128288,27.6019512 C14.7421261,27.6019512 15.1734054,27.1745908 15.1734054,26.650103 L15.1734054,22.6484553 C15.1734054,22.4153496 15.3694414,22.2210949 15.6046847,22.2210949 L20.3683604,22.2210949 C20.6036036,22.2210949 20.7996396,22.4153496 20.7996396,22.6484553 L20.7996396,26.6695285 C20.7996396,27.1940163 21.2309189,27.6213767 21.7602162,27.6213767 C22.2895135,27.6213767 22.7207928,27.1940163 22.7207928,26.6695285 L22.7207928,22.6484553 C22.7207928,21.3469485 21.6818018,20.2979729 20.3683604,20.2979729 L20.3683604,20.2979729 Z M21.7602162,9.73051491 L14.2128288,9.73051491 C13.6835315,9.73051491 13.2522523,10.1578753 13.2522523,10.6823631 C13.2522523,11.2068509 13.6835315,11.6342114 14.2128288,11.6342114 L21.7602162,11.6342114 C22.2895135,11.6342114 22.7207928,11.2068509 22.7207928,10.6823631 C22.7207928,10.1578753 22.3091171,9.73051491 21.7602162,9.73051491 Z M21.7602162,14.8199892 L14.2128288,14.8199892 C13.6835315,14.8199892 13.2522523,15.2473496 13.2522523,15.7718374 C13.2522523,16.2963252 13.6835315,16.7236856 14.2128288,16.7236856 L21.7602162,16.7236856 C22.2895135,16.7236856 22.7207928,16.2963252 22.7207928,15.7718374 C22.7207928,15.2473496 22.3091171,14.8199892 21.7602162,14.8199892 Z" id="Shape" fill="#333333" fill-rule="nonzero"></path>
                    </g>
                </g>
            </g>
        </g>
    </g>
</svg>