<?xml version="1.0" encoding="UTF-8" standalone="no"?>
<svg width="165px" height="126px" viewBox="0 0 165 126" version="1.1" xmlns="http://www.w3.org/2000/svg" xmlns:xlink="http://www.w3.org/1999/xlink">
    <!-- Generator: Sketch 46.2 (44496) - http://www.bohemiancoding.com/sketch -->
    <title>bg_icon</title>
    <desc>Created with Sketch.</desc>
    <defs></defs>
    <g id="Page-1-Copy-2" stroke="none" stroke-width="1" fill="none" fill-rule="evenodd" opacity="0.15">
        <g id="01输入手机号码－未输入" transform="translate(-585.000000, -199.000000)" fill-rule="nonzero" fill="#EB6161">
            <g id="Group" transform="translate(582.000000, 192.000000)">
                <g id="水费" transform="translate(146.103388, 36.931815) rotate(-15.000000) translate(-146.103388, -36.931815) translate(119.103388, 5.931815)">
                    <path d="M3.96179975,36.6722765 C3.96179975,48.1017548 14.1031249,57.4659836 26.44525,57.4659837 C38.7922766,57.4659837 48.9336018,48.1061677 48.9336018,36.6722765 C48.9336018,30.4059217 39.5471166,17.6128494 26.44525,5.11544308 C13.3482849,17.6128494 3.96179975,30.4103346 3.96179975,36.6722765 Z M52.8548488,36.6722765 C52.8548488,50.0346163 40.9783718,60.9963244 26.44525,60.9963244 C11.9121281,60.9963244 0.0405527404,50.0346163 0.0405527404,36.6722765 C0.0405527404,28.9143527 10.480873,14.9165516 25.0385026,1.33356556 L26.44525,0.0141006559 L27.8568989,1.33356556 C42.4096269,14.9165516 52.8548488,28.9143528 52.8548488,36.6722765 Z" id="Shape"></path>
                    <path d="M46.9190611,38.4815762 C47.2278593,37.5107325 46.3063663,36.5354759 44.9339298,36.6722765 C44.0173383,36.8134901 43.4046434,37.2283052 43.2526951,37.7843339 C41.1156154,43.7726744 35.7680148,48.6489576 28.7391795,51.0142859 C27.9745363,51.2923002 27.5137898,51.8527419 27.6706397,52.5455712 C27.8174896,53.3324714 28.5685986,53.9120984 29.4548071,53.9224041 C29.6753773,53.9224041 29.8959474,53.8826878 30.111616,53.7988422 C38.2089911,51.0186989 44.4731832,45.3039598 46.9190611,38.4859891 M36.1748442,28.1067873 C36.1802827,27.2725351 35.4349218,26.5916102 34.5083142,26.5843278 L29.1067964,26.5843278 L33.2094011,22.8421666 C33.8588924,22.2451282 33.8588924,21.2901101 33.2094011,20.6930717 C32.8981271,20.4092822 32.473578,20.2495494 32.0305762,20.2495494 C31.5875744,20.2495494 31.1630253,20.4092822 30.8517514,20.6930717 L26.4991672,24.664705 L22.1465829,20.6930717 C21.6711614,20.2537349 20.945473,20.1212196 20.3174922,20.3590682 C19.6895115,20.5969168 19.2872828,21.1566322 19.3036788,21.7698256 C19.3036788,22.1581631 19.4654303,22.5509135 19.7889331,22.8421666 L23.8915379,26.5843278 L18.3870873,26.5843278 C17.4604797,26.5916103 16.7151189,27.2725351 16.7205574,28.1067873 C16.7205574,28.9408303 17.4704959,29.6248338 18.3870873,29.6248338 L24.8571449,29.6248338 L24.8571449,33.1728263 L18.3870873,33.1728263 C17.4624006,33.1801044 16.7178261,33.8583393 16.7205574,34.6908728 C16.7205574,35.5293288 17.4704959,36.2133323 18.3870873,36.2133323 L24.8571449,36.2133323 L24.8571449,41.5971019 C24.8571449,42.4355579 25.611985,43.1195614 26.5285765,43.1195614 C27.445168,43.1195614 28.1951065,42.4355579 28.1951065,41.5971019 L28.1951065,36.2133323 L34.5083142,36.2133323 C35.4249057,36.2133323 36.1748442,35.5293288 36.1748442,34.6908728 C36.1775755,33.8583392 35.4330009,33.1801043 34.5083142,33.1728263 L28.1951065,33.1728263 L28.1951065,29.6248338 L34.5083142,29.6248338 C35.4249057,29.6248338 36.1748442,28.9408303 36.1748442,28.1067873" id="Shape"></path>
                </g>
                <g id="guanjia@x" transform="translate(80.102186, 102.809292) rotate(15.000000) translate(-80.102186, -102.809292) translate(54.102186, 75.809292)">
                    <path d="M49.1256648,17.0034297 L44.1092555,14.5448645 C42.5326697,13.8217571 40.8127579,14.4002431 39.8094761,15.8464579 L26.3368339,37.2504369 C26.1935079,37.3950584 26.1935079,37.3950584 25.906856,37.3950584 C25.620204,37.3950584 25.620204,37.3950584 25.476878,37.2504369 L12.0042359,15.8464579 C11.14428,14.4002431 9.28104228,13.8217571 7.7044565,14.5448645 L2.6880472,17.0034297 C1.39811337,17.5819156 0.681483474,18.8835089 0.681483474,20.1851023 L0.681483474,45.4938613 C0.681483474,49.8325057 4.121307,53.3034212 8.4210864,53.3034212 L43.3926256,53.3034212 C47.692405,53.3034212 51.1322285,49.8325057 51.1322285,45.4938613 L51.1322285,20.1851023 C50.9889025,18.8835089 50.2722726,17.5819156 49.1256648,17.0034297 Z M43.3926256,50.2663701 L8.4210864,50.2663701 C5.84121876,50.2663701 3.69132906,48.0970479 3.69132906,45.4938613 L3.69132906,20.1851023 C3.69132906,20.0404808 3.83465504,19.8958593 3.97798102,19.7512378 L8.99439032,17.2926727 L9.1377163,17.2926727 C9.28104228,17.2926727 9.42436826,17.2926727 9.56769424,17.4372941 L23.0403364,38.8412732 C23.6136403,39.8536236 24.7602481,40.4321095 25.906856,40.4321095 C27.0534638,40.4321095 28.2000717,39.8536236 28.7733756,38.8412732 L42.2460177,17.4372941 C42.3893437,17.2926727 42.5326697,17.1480512 42.8193216,17.2926727 L47.8357309,19.7512378 C47.9790569,19.7512378 48.1223829,20.0404808 48.1223829,20.1851023 L48.1223829,45.4938613 C48.1223829,48.0970479 45.9724932,50.2663701 43.3926256,50.2663701 L43.3926256,50.2663701 Z M45.8291672,30.3086059 L38.0895643,30.3086059 C37.2296084,30.3086059 36.6563045,31.0317133 36.6563045,31.7548207 C36.6563045,32.4779281 37.3729344,33.2010355 38.0895643,33.2010355 L45.8291672,33.2010355 C46.6891231,33.2010355 47.262427,32.4779281 47.262427,31.7548207 C47.262427,31.0317133 46.6891231,30.3086059 45.8291672,30.3086059 Z M25.906856,24.5237467 C24.6169222,24.5237467 23.4703143,25.6807185 23.4703143,26.9823118 C23.4703143,28.2839052 24.6169222,29.440877 25.906856,29.440877 C27.1967898,29.440877 28.3433976,28.2839052 28.3433976,26.9823118 C28.3433976,25.6807185 27.1967898,24.5237467 25.906856,24.5237467 L25.906856,24.5237467 Z M12.5775398,15.1233505 C12.8641918,16.1357008 13.8674736,17.0034297 14.8707555,17.0034297 L15.4440594,17.0034297 C19.6005129,16.1357008 22.0370545,14.689486 23.4703143,13.6771357 L28.0567457,13.6771357 C29.4900055,14.689486 32.0698731,16.1357008 36.0830006,17.0034297 L36.6563045,17.0034297 C37.8029123,17.0034297 38.6628682,16.2803223 38.9495202,15.1233505 C39.2361721,13.9663786 39.6661501,12.0862994 39.8094761,9.04924829 C39.8094761,6.01219721 39.3794981,3.98749649 39.0928462,2.97514612 C38.8061942,1.6735528 37.5162604,0.950445402 36.2263266,1.23968836 C32.0698731,2.10741724 29.6333315,3.55363205 28.2000717,4.56598241 L23.6136403,4.56598241 C22.1803805,3.55363205 19.6005129,2.10741724 15.5873854,1.23968836 C14.2974516,0.950445402 13.0075178,1.6735528 12.7208658,2.97514612 C12.2908879,3.98749649 12.0042359,6.01219721 11.8609099,9.04924829 C12.0042359,12.0862994 12.2908879,13.9663786 12.5775398,15.1233505 Z M14.7274295,9.04924829 C14.8707555,6.73530461 15.1574075,5.14446833 15.3007334,4.13211797 C18.453905,4.85522537 20.3171428,5.86757573 21.6070766,6.73530461 L21.6070766,11.363192 C20.4604687,12.0862994 18.453905,13.0986497 15.3007334,13.9663786 C15.1574075,12.8094068 14.8707555,11.363192 14.7274295,9.04924829 L14.7274295,9.04924829 Z M24.4735962,10.6400846 L24.4735962,7.45841201 L27.0534638,7.45841201 L27.0534638,10.6400846 L24.4735962,10.6400846 L24.4735962,10.6400846 Z M30.0633094,11.2185705 L30.0633094,6.73530461 C31.2099172,5.86757573 33.216481,4.85522537 36.5129785,4.13211797 C36.7996305,5.14446833 36.9429565,6.73530461 37.0862824,8.90462681 C36.9429565,11.2185705 36.6563045,12.8094068 36.5129785,13.8217571 C33.216481,13.0986497 31.2099172,12.0862994 30.0633094,11.2185705 L30.0633094,11.2185705 Z M25.906856,17.7265371 C24.6169222,17.7265371 23.4703143,18.8835089 23.4703143,20.1851023 C23.4703143,21.4866956 24.6169222,22.6436674 25.906856,22.6436674 C27.1967898,22.6436674 28.3433976,21.4866956 28.3433976,20.1851023 C28.3433976,18.7388875 27.1967898,17.7265371 25.906856,17.7265371 Z" id="Shape"></path>
                </g>
                <g id="youju@x" transform="translate(23.718440, 41.597120) rotate(-15.000000) translate(-23.718440, -41.597120) translate(3.718440, 24.597120)">
                    <path d="M1.08440636,20.0619806 L16.5655824,20.0619806 C17.3027813,20.0619806 17.6187237,19.566164 17.6187237,18.971184 C17.6187237,18.2770407 17.092153,17.8803874 16.5655824,17.8803874 L1.08440636,17.8803874 C0.452521622,17.7812241 0.0312651302,18.2770407 0.0312651302,18.8720207 C-0.0740489927,19.4670006 0.452521622,20.0619806 1.08440636,20.0619806 L1.08440636,20.0619806 Z M1.08440636,13.7155277 L16.5655824,13.7155277 C17.3027813,13.7155277 17.6187237,13.219711 17.6187237,12.6247311 C17.6187237,11.9305878 17.092153,11.5339345 16.5655824,11.5339345 L1.08440636,11.5339345 C0.452521622,11.4347712 0.0312651302,12.0297511 0.0312651302,12.5255678 C-0.0740489927,13.219711 0.452521622,13.7155277 1.08440636,13.7155277 Z M3.19068882,7.36907474 L18.6718649,7.36907474 C19.4090637,7.36907474 19.7250061,6.87325811 19.7250061,6.27827815 C19.7250061,5.68329818 19.1984355,5.28664488 18.6718649,5.28664488 L3.19068882,5.28664488 C2.6641182,5.28664488 2.24286171,5.78246151 2.24286171,6.17911482 C2.24286171,6.87325811 2.6641182,7.36907474 3.19068882,7.36907474 Z M39.5240612,17.3845708 L30.782989,5.68329818 C30.4670467,5.3858082 30.1511043,5.3858082 29.940476,5.3858082 L25.3066546,5.3858082 L25.3066546,1.12178514 C25.3066546,0.427641848 24.780084,0.0309885397 24.2535134,0.0309885397 L6.56074075,0.0309885397 C5.82354189,0.0309885397 5.50759952,0.526805175 5.50759952,1.12178514 C5.50759952,1.7167651 5.92885601,2.11341841 6.56074075,2.11341841 L23.0950581,2.11341841 L23.0950581,18.8720207 C23.0950581,19.566164 23.6216287,19.9628173 24.1481993,19.9628173 L37.3124646,19.9628173 L37.3124646,27.3009035 L34.8902398,27.3009035 C34.3636692,24.9209836 32.1520726,23.1360437 29.4139054,23.1360437 C26.7810524,23.1360437 24.5694558,24.9209836 23.937571,27.3009035 L14.8805565,27.3009035 C14.3539858,24.9209836 12.1423893,23.1360437 9.40422207,23.1360437 C6.66605487,23.1360437 4.77040066,24.8218203 4.24383005,27.2017402 L1.08440636,27.2017402 C0.347207499,27.2017402 0.0312651302,27.6975568 0.0312651302,28.2925368 C0.0312651302,28.98668 0.557835745,29.3833334 1.08440636,29.3833334 L4.55977242,29.3833334 C5.08634303,31.7632532 7.29793961,33.5481931 10.0361068,33.5481931 C12.774274,33.5481931 14.8805565,31.7632532 15.5124412,29.3833334 L24.5694558,29.3833334 C25.0960264,31.7632532 27.307623,33.5481931 30.0457902,33.5481931 C32.7839574,33.5481931 34.8902398,31.7632532 35.5221246,29.3833334 L38.8921765,29.3833334 C39.6293753,29.3833334 39.9453177,28.8875167 39.9453177,28.2925368 L39.9453177,17.7812241 C39.6293753,17.5828974 39.5240612,17.4837341 39.5240612,17.3845708 Z M25.3066546,17.8803874 L25.3066546,7.36907474 L29.4139054,7.36907474 L37.3124646,17.8803874 L25.3066546,17.8803874 L25.3066546,17.8803874 Z M9.82547856,31.5649266 C7.92982435,31.5649266 6.56074075,30.17664 6.56074075,28.3917001 C6.56074075,26.6067602 8.03513847,25.2184736 9.82547856,25.2184736 C11.6158187,25.2184736 13.0902164,26.6067602 13.0902164,28.3917001 C13.1955305,30.0774766 11.7211328,31.5649266 9.82547856,31.5649266 Z M29.7298478,31.5649266 C27.8341936,31.5649266 26.46511,30.17664 26.46511,28.3917001 C26.46511,26.6067602 27.9395077,25.2184736 29.7298478,25.2184736 C31.625502,25.2184736 32.9945856,26.6067602 32.9945856,28.3917001 C32.9945856,30.0774766 31.625502,31.5649266 29.7298478,31.5649266 Z" id="Shape"></path>
                </g>
            </g>
        </g>
    </g>
</svg>