<?xml version="1.0" encoding="UTF-8" standalone="no"?>
<svg width="38px" height="38px" viewBox="0 0 38 38" version="1.1" xmlns="http://www.w3.org/2000/svg" xmlns:xlink="http://www.w3.org/1999/xlink">
    <!-- Generator: Sketch 46.2 (44496) - http://www.bohemiancoding.com/sketch -->
    <title>build</title>
    <desc>Created with Sketch.</desc>
    <defs></defs>
    <g id="Page-1-Copy-2" stroke="none" stroke-width="1" fill="none" fill-rule="evenodd">
        <g id="发布出售－选择小区" transform="translate(-30.000000, -248.000000)">
            <g id="Group" transform="translate(30.000000, 246.000000)">
                <g transform="translate(0.000000, 2.000000)">
                    <rect id="占位" fill="#FFFFFF" x="0" y="0" width="38" height="38"></rect>
                    <path d="M31.0008099,30.5949488 L31.0008099,11.2444934 C31.0008099,10.5663518 30.8354728,10.072567 30.4952252,9.73477642 C30.0478263,9.2908625 29.4678909,9.29933188 29.1462015,9.30118333 L25.5273827,9.30177422 L25.5273827,10.706983 L29.0683589,10.706983 L29.1626019,10.7062345 C29.2586888,10.7048164 29.4633004,10.7028467 29.5115597,10.7342426 C29.5125013,10.734991 29.6012513,10.8379236 29.6012513,11.2443358 L29.6012513,30.5947913 L23.9766509,30.5947913 L23.9766509,7.04612112 C23.9766509,6.17483813 23.6376195,5.69031056 23.3533213,5.43733202 C22.852641,4.99136969 22.2426515,4.99093637 22.0458477,5.00322683 L8.96581494,5.00322683 C8.21559879,5.00322683 7.76808217,5.32482708 7.52576561,5.59474439 C6.97953324,6.20162502 6.99730678,7.03871533 7.01233386,7.25490129 L7.01233386,30.5949488 L5,30.5949488 L5,32 L33,32 L33,30.5949488 L31.0008099,30.5949488 L31.0008099,30.5949488 Z M8.40871442,7.16197441 C8.39784627,7.02547945 8.42142662,6.69217963 8.56640066,6.53445212 C8.59461077,6.50337145 8.68167366,6.40843556 8.96581494,6.40843556 L22.073587,6.40843556 C22.1013263,6.40843556 22.1296933,6.40674169 22.1574326,6.40335393 C22.1579034,6.40429935 22.3264578,6.40059646 22.4248597,6.4884417 C22.5227907,6.57585363 22.577053,6.77387965 22.577053,7.04612112 L22.577053,30.5947913 L8.4119317,30.5947913 L8.4119317,7.22673566 C8.4119317,7.20751213 8.41055847,7.18119795 8.40871442,7.16197441 L8.40871442,7.16197441 Z M25.8338039,19.2406074 L28.0021569,19.2406074 C28.069098,19.2406074 28.1237647,19.1860171 28.1237647,19.1183596 L28.1237647,14.7999733 C28.1237647,14.7324733 28.069098,14.6779223 28.0021569,14.6779223 L25.8338039,14.6779223 C25.7667059,14.6779223 25.7121569,14.7324733 25.7121569,14.7999733 L25.7121569,19.1183596 C25.7121569,19.1858596 25.7667059,19.2406074 25.8338039,19.2406074 L25.8338039,19.2406074 Z M10.2109412,25.0243144 L14.5139216,25.0243144 C14.5808627,25.0243144 14.6355686,24.9697241 14.6355686,24.9022241 L14.6355686,22.7604077 C14.6355686,22.6927503 14.5808627,22.6381993 14.5139216,22.6381993 L10.2109412,22.6381993 C10.144,22.6381993 10.0892941,22.6927503 10.0892941,22.7604077 L10.0892941,24.9022241 C10.0892941,24.9697241 10.144,25.0243144 10.2109412,25.0243144 L10.2109412,25.0243144 Z M25.7121569,26.1017561 C25.7121569,26.1692561 25.7668627,26.2238071 25.8338039,26.2238071 L28.0021569,26.2238071 C28.069098,26.2238071 28.1237647,26.1692561 28.1237647,26.1017561 L28.1237647,21.7833698 C28.1237647,21.7158698 28.069098,21.6612794 28.0021569,21.6612794 L25.8338039,21.6612794 C25.7667059,21.6612794 25.7121569,21.7158698 25.7121569,21.7833698 L25.7121569,26.1017561 L25.7121569,26.1017561 Z M10.2109412,19.1810972 L14.5139216,19.1810972 C14.5808627,19.1810972 14.6355686,19.1265069 14.6355686,19.0590069 L14.6355686,16.8825943 C14.6355686,16.8151337 14.5808627,16.7603859 14.5139216,16.7603859 L10.2109412,16.7603859 C10.144,16.7603859 10.0892941,16.8151337 10.0892941,16.8825943 L10.0892941,19.0590069 C10.0892941,19.1265069 10.144,19.1810972 10.2109412,19.1810972 L10.2109412,19.1810972 Z M16.6822745,25.0243144 L20.9851373,25.0243144 C21.0522353,25.0243144 21.1069412,24.9697241 21.1069412,24.9022241 L21.1069412,22.7604077 C21.1069412,22.6927503 21.0522353,22.6381993 20.9851373,22.6381993 L16.6822745,22.6381993 C16.6152157,22.6381993 16.5605098,22.6927503 16.5605098,22.7604077 L16.5605098,24.9022241 C16.5605098,24.9697241 16.6152157,25.0243144 16.6822745,25.0243144 L16.6822745,25.0243144 Z M16.6822745,13.1747386 L20.9851373,13.1747386 C21.0522353,13.1747386 21.1069412,13.1201876 21.1069412,13.0526876 L21.1069412,10.9107138 C21.1069412,10.8432138 21.0522353,10.7886235 20.9851373,10.7886235 L16.6822745,10.7886235 C16.6152157,10.7886235 16.5605098,10.8432138 16.5605098,10.9107138 L16.5605098,13.0526876 C16.5605098,13.1201876 16.6152157,13.1747386 16.6822745,13.1747386 L16.6822745,13.1747386 Z M16.6822745,19.1810972 L20.9851373,19.1810972 C21.0522353,19.1810972 21.1069412,19.1265069 21.1069412,19.0590069 L21.1069412,16.8825943 C21.1069412,16.8151337 21.0522353,16.7603859 20.9851373,16.7603859 L16.6822745,16.7603859 C16.6152157,16.7603859 16.5605098,16.8151337 16.5605098,16.8825943 L16.5605098,19.0590069 C16.5605098,19.1265069 16.6152157,19.1810972 16.6822745,19.1810972 L16.6822745,19.1810972 Z M10.2109412,13.1747386 L14.5139216,13.1747386 C14.5808627,13.1747386 14.6355686,13.1201876 14.6355686,13.0526876 L14.6355686,10.9107138 C14.6355686,10.8432138 14.5808627,10.7886235 14.5139216,10.7886235 L10.2109412,10.7886235 C10.144,10.7886235 10.0892941,10.8432138 10.0892941,10.9107138 L10.0892941,13.0526876 C10.0892941,13.1201876 10.144,13.1747386 10.2109412,13.1747386 L10.2109412,13.1747386 Z" id="Fill-9" stroke="#C81528" stroke-width="0.5" fill="#C81528"></path>
                </g>
            </g>
        </g>
    </g>
</svg>