<?xml version="1.0" encoding="UTF-8" standalone="no"?>
<svg width="50px" height="50px" viewBox="0 0 50 50" version="1.1" xmlns="http://www.w3.org/2000/svg" xmlns:xlink="http://www.w3.org/1999/xlink">
    <!-- Generator: Sketch 46.2 (44496) - http://www.bohemiancoding.com/sketch -->
    <title>closeeye</title>
    <desc>Created with Sketch.</desc>
    <defs></defs>
    <g id="Page-1-Copy-2" stroke="none" stroke-width="1" fill="none" fill-rule="evenodd">
        <g id="04已注册－输入密码（默认）" transform="translate(-650.000000, -550.000000)">
            <g id="眼睛闭着" transform="translate(650.000000, 550.000000)">
                <rect id="wenhao" x="0" y="0" width="50" height="50"></rect>
                <path d="M35.7965259,21.8608446 C36.1392191,21.3386454 36.024988,20.653259 35.5680637,20.2616096 C35.0458645,19.8536414 34.3604781,19.9678725 33.9688287,20.4900717 C33.9035538,20.5553466 27.5555697,28.0456414 20.0163187,28.0456414 C12.6892112,28.0456414 6.06380876,20.4900717 5.99853386,20.4411155 C5.59056574,19.9841912 4.85622311,19.9189163 4.3992988,20.3268845 C3.9423745,20.7348526 3.8770996,21.4691952 4.28506773,21.9261195 C4.3992988,22.1056255 5.77007171,23.6395857 7.94046215,25.3530518 L5.01941036,28.3883347 C4.56248606,28.845259 4.61144223,29.5959203 5.08468526,29.9875697 C5.19891633,30.2160319 5.49265339,30.3302629 5.77007171,30.3302629 C6.06380876,30.3302629 6.34122709,30.2160319 6.56968924,29.9875697 L9.71920319,26.7238247 C11.2042072,27.7519044 12.9829482,28.7310279 14.9248765,29.4164143 L13.7172908,33.4797769 C13.5377849,34.1162072 13.8967968,34.7363187 14.5169084,34.9158247 L14.8596016,34.9158247 C15.3818008,34.9158247 15.8387251,34.5731315 15.9529562,34.0509323 L17.1605418,29.9875697 C18.0743904,30.1670757 19.0535139,30.2813068 20.0163187,30.2813068 C20.9791235,30.2813068 21.958247,30.1670757 22.8720956,29.9875697 L24.0796813,33.9856574 C24.1939124,34.5078566 24.7161116,34.8505498 25.1730359,34.8505498 C25.2872669,34.8505498 25.401498,34.8505498 25.4667729,34.7852749 C26.1032032,34.6057689 26.4458964,33.9856574 26.2663904,33.3492271 L25.0588048,29.3511394 C27.0007331,28.665753 28.7794741,27.6866295 30.2644781,26.6585498 L33.3487171,29.8570199 C33.5771793,30.0854821 33.8709163,30.1997131 34.1483347,30.1997131 C34.425753,30.1997131 34.71949,30.0854821 34.9479522,29.8570199 C35.4048765,29.4000956 35.4048765,28.7147092 35.0132271,28.2577849 L32.0758566,25.2388207 C34.425753,23.5253546 35.7965259,21.8608446 35.7965259,21.8608446 L35.7965259,21.8608446 Z" id="Shape" stroke="#C71628" fill="#C71628" fill-rule="nonzero"></path>
            </g>
        </g>
    </g>
</svg>