<?xml version="1.0" encoding="UTF-8" standalone="no"?>
<svg width="48px" height="48px" viewBox="0 0 48 48" version="1.1" xmlns="http://www.w3.org/2000/svg" xmlns:xlink="http://www.w3.org/1999/xlink">
    <!-- Generator: Sketch 46.2 (44496) - http://www.bohemiancoding.com/sketch -->
    <title>close_icon@1x</title>
    <desc>Created with Sketch.</desc>
    <defs></defs>
    <g id="Page-1-Copy-2" stroke="none" stroke-width="1" fill="none" fill-rule="evenodd">
        <g id="添加客户" transform="translate(-672.000000, -144.000000)" fill-rule="nonzero" fill="#FFFFFF">
            <g id="关闭-(1)" transform="translate(672.000000, 144.000000)">
                <path d="M24.8346134,8.83106953 C16.0049626,8.83106953 8.8346134,16.0014593 8.8346134,24.8310695 C8.8346134,33.6606798 16.0050031,40.8310695 24.8346134,40.8310695 C33.6642237,40.8310695 40.8346134,33.6606798 40.8346134,24.8310695 C40.8346134,16.0014593 33.6642237,8.83106953 24.8346134,8.83106953 L24.8346134,8.83106953 Z M24.8346134,39.6459294 C16.6568383,39.6459294 10.0197941,33.0088851 10.0197941,24.83111 C10.0197941,16.653335 16.6568383,10.0162907 24.8346134,10.0162907 C33.0123885,10.0162907 39.6494327,16.653335 39.6494327,24.83111 C39.6494327,33.0088851 33.0123885,39.6459294 24.8346134,39.6459294 Z M31.0568424,17.0681097 L24.8346134,23.8829493 L18.0197738,17.6607203 L17.1308782,18.6088811 L23.9457178,24.8903752 L17.6642237,31.7052147 L18.6123844,32.5941104 L24.8938785,25.7792708 L31.7087181,32.0014998 L32.5976137,31.053339 L25.7827742,24.7718449 L32.0050031,17.9570054 L31.0568424,17.0681097 Z" id="Shape"></path>
            </g>
        </g>
    </g>
</svg>