<?xml version="1.0" encoding="UTF-8" standalone="no"?>
<svg width="50px" height="50px" viewBox="0 0 50 50" version="1.1" xmlns="http://www.w3.org/2000/svg" xmlns:xlink="http://www.w3.org/1999/xlink">
    <!-- Generator: Sketch 46.2 (44496) - http://www.bohemiancoding.com/sketch -->
    <title>duihao</title>
    <desc>Created with Sketch.</desc>
    <defs></defs>
    <g id="Page-1-Copy-2" stroke="none" stroke-width="1" fill="none" fill-rule="evenodd">
        <g id="03输入手机号码－已输入" transform="translate(-650.000000, -550.000000)">
            <g id="对号-(3)" transform="translate(650.000000, 550.000000)">
                <rect id="wenhao" x="0" y="0" width="50" height="50"></rect>
                <path d="M35.3886817,16.5884102 C34.6084535,15.8186461 33.344356,15.8186461 32.5662866,16.5884102 L16.0083645,32.9332102 L7.43844147,24.4727204 C6.6581036,23.7031026 5.39400602,23.7031026 4.61604637,24.4727204 C3.8357085,25.2424845 3.8357085,26.4904836 4.61604637,27.2601379 L14.6005147,37.1168427 C14.9884152,37.4993648 15.5018108,37.6952176 16.0106329,37.6952176 C16.5217601,37.6952176 17.0350093,37.4994014 17.4229098,37.1168427 L35.3909867,19.3759375 C36.1690561,18.603905 36.1690561,17.3581743 35.3886817,16.5884102 L35.3886817,16.5884102 L35.3886817,16.5884102" id="Shape" fill="#C71628" fill-rule="nonzero"></path>
            </g>
        </g>
    </g>
</svg>