<?xml version="1.0" encoding="UTF-8" standalone="no"?>
<svg width="214px" height="300px" viewBox="0 0 214 300" version="1.1" xmlns="http://www.w3.org/2000/svg" xmlns:xlink="http://www.w3.org/1999/xlink">
    <!-- Generator: Sketch 46.2 (44496) - http://www.bohemiancoding.com/sketch -->
    <title>fbmf_btn</title>
    <desc>Created with Sketch.</desc>
    <defs>
        <rect id="path-1" x="0" y="0" width="214" height="300" rx="10"></rect>
    </defs>
    <g id="Page-1-Copy-2" stroke="none" stroke-width="1" fill="none" fill-rule="evenodd">
        <g id="首页－彩块" transform="translate(-268.000000, -518.000000)">
            <g id="发布卖房" transform="translate(268.000000, 518.000000)">
                <g id="租房-copy">
                    <mask id="mask-2" fill="white">
                        <use xlink:href="#path-1"></use>
                    </mask>
                    <use id="Mask" fill="#F07750" xlink:href="#path-1"></use>
                    <g id="Group-10" opacity="0.0670289855" mask="url(#mask-2)" fill="#000000">
                        <g transform="translate(59.000000, 137.000000)">
                            <path d="M108.410355,152.436125 L69.6183978,152.335953 C61.5313079,152.335953 53.0325065,145.599028 53.0325065,135.750061 L53.0325065,99.2620592 C53.0325065,96.5962385 49.1492846,92.6277027 46.3981499,92.6277027 L39.8011782,92.3650508 L94.7740257,34.8826317 L154.076795,95.0893452 C155.979583,96.9954885 159.150577,96.9954885 161.053845,95.0893452 C162.956154,93.1822433 162.956154,90.0054975 161.053845,88.0993542 L98.2623111,24.3976452 C97.310917,23.4448132 96.0422317,22.9679179 94.7740257,22.9679179 C93.5053404,22.9679179 92.2371344,23.4448132 91.2857403,24.3976452 L24.5295049,93.3418474 C23.2612989,94.7715747 22.4431479,97.3257205 23.1788607,99.2620592 C23.9140943,101.036877 24.5836649,102.579237 26.4955597,102.579237 L43.081451,102.579237 L43.081451,139.067719 C43.081451,152.887618 53.7619885,162.287488 69.6183978,162.287488 L108.727167,162.285091 C111.422704,162.285091 113.642784,160.061177 113.325972,157.360368 C113.325972,154.660039 111.105892,152.436125 108.410355,152.436125 L108.410355,152.436125 Z" id="&lt;!---Generator:-Adobe-Illustrator-19.0.0,-SVG-Export-Plug-In----&gt;--&lt;svg-version=&quot;1.1&quot;----xmlns=&quot;http://www.w3.org/2000/svg&quot;-xmlns:xlink=&quot;http://www.w3.org/1999/xlink&quot;-xmlns:a=&quot;http://ns.adobe.com/AdobeSVGViewerExtensions/3.0/&quot;----x=&quot;0px&quot;-y=&quot;0px&quot;-width=&quot;213px&quot;-height=&quot;256.3px&quot;-viewBox=&quot;0-0-213-256.3&quot;-style=&quot;enable-background:new-0-0-213-256.3;&quot;----xml:space=&quot;preserve&quot;&gt;--&lt;style-type=&quot;text/css&quot;&gt;---.st0{fill-rule:evenodd;clip-rule:evenodd;}--&lt;/style&gt;--&lt;defs&gt;--&lt;/defs&gt;--&lt;g&gt;---&lt;path-class=&quot;st0&quot;-d=&quot;M203.9,256.3c-0.4,0-0.9,0-1.3-0.1l-36.1-6.7c-1.7-0.3-3.3-1.3-4.4-2.7l-50.3-65.8c-6.7,1.5-13.5,2.3-20.2,2.3----C41.1,183.3,0,142.2,0,91.7C0,41.1,41.1,0,91.7,0c50.6,0,91.7,41.1,91.7,91.7c0,20.2-6.7,39.8-19,55.8l47.1,61.7----c1,1.3,1.6,3.1,1.5,4.8l-1.9,35.6c-0.1,2.1-1.1,4-2.7,5.3C207.1,255.8,205.5,256.3,203.9,256.3L203.9,256.3z-M171.9,235.9l25.2,4.7----l1.3-24.7l-49-64.1c-2.1-2.7-1.9-6.5,0.3-9.1c12.4-14.1,19.2-32.2,19.2-50.9c0-42.6-34.6-77.3-77.2-77.3----c-42.6,0-77.3,34.6-77.3,77.3S49.1,169,91.7,169c7,0,14.1-1,21.1-3c2.8-0.8,5.9,0.2,7.7,2.6L171.9,235.9L171.9,235.9z-M78.4,109.5----c-18.9,0-34.2-15.4-34.2-34.2C44.2,56.3,59.6,41,78.4,41c18.9,0,34.3,15.4,34.3,34.3C112.7,94.1,97.3,109.5,78.4,109.5L78.4,109.5z-----M78.4,55.4c-10.9,0-19.8,8.9-19.8,19.8c0,11,8.9,19.8,19.8,19.8c11,0,19.9-8.9,19.9-19.8C98.3,64.3,89.4,55.4,78.4,55.4L78.4,55.4----z&quot;/&gt;--&lt;/g&gt;--&lt;/svg&gt;--z" stroke="#F07750" stroke-width="4" transform="translate(92.690651, 92.627703) rotate(-25.000000) translate(-92.690651, -92.627703) "></path>
                            <path d="M123.965473,96.1899413 C121.186225,96.1899413 118.91822,98.4592363 118.91822,101.264561 C118.91822,104.06963 121.186225,106.333293 123.965473,106.333293 C126.75567,106.333293 129.023421,104.063998 129.023421,101.258929 C129.023421,98.4538607 126.750069,96.1899413 123.965473,96.1899413 L123.965473,96.1899413 Z M123.965473,110.024321 C119.163148,110.024321 115.247096,106.087293 115.247096,101.258929 C115.247096,96.4195587 119.163148,92.4879059 123.965473,92.4879059 C128.778747,92.4879059 132.689197,96.4251903 132.689197,101.258929 C132.683851,106.087293 128.7734,110.024321 123.965473,110.024321 L123.965473,110.024321 Z M147.775964,142.385006 L154.193747,143.582497 L154.530842,137.250486 L142.065469,120.829391 C141.537932,120.129532 141.570521,119.156282 142.146942,118.494564 C145.295875,114.874699 147.025394,110.248563 147.025394,105.469348 C147.025394,94.5603495 138.209504,85.6910282 127.359334,85.6910282 C116.514511,85.6910282 107.687418,94.5603495 107.687418,105.469348 C107.687418,116.378347 116.503563,125.2533 127.353733,125.2533 C129.126789,125.2533 130.932435,124.990661 132.721787,124.482278 C133.445114,124.279795 134.211979,124.537058 134.674339,125.143995 L147.775964,142.385006 Z M155.917665,147.618079 C155.80895,147.618079 155.694888,147.607328 155.580571,147.585313 L146.400089,145.879182 C145.959625,145.797268 145.557098,145.551011 145.285181,145.184699 L132.487806,128.348143 C130.780183,128.742101 129.050663,128.933321 127.348386,128.933321 C114.474885,128.933321 104,118.401642 104,105.463973 C104.005601,92.5263034 114.474885,82 127.353733,82 C140.232581,82 150.702119,92.5263034 150.702119,105.469348 C150.702119,110.63689 148.994241,115.651098 145.861603,119.746836 L157.848576,135.544355 C158.114891,135.888909 158.245503,136.331761 158.229208,136.763861 L157.734259,145.868175 C157.712618,146.404205 157.462343,146.896461 157.054469,147.224377 C156.728067,147.481384 156.32554,147.618079 155.917665,147.618079 L155.917665,147.618079 Z" id="Fill-1" stroke="#000000" stroke-width="2"></path>
                        </g>
                    </g>
                </g>
                <text font-family="PingFangSC-Regular, PingFang SC" font-size="36" font-weight="normal" line-spacing="40" fill="#FFFFFF">
                    <tspan x="35" y="88">发布卖房</tspan>
                </text>
                <text id="Sell-real-estate" font-family="PingFangSC-Regular, PingFang SC" font-size="20" font-weight="normal" fill="#FFFFFF">
                    <tspan x="37.29" y="113">Sell real estate</tspan>
                </text>
                <g id="租房-(1)" transform="translate(62.000000, 164.000000)" fill-rule="nonzero" fill="#FFFFFF">
                    <path d="M71.9509126,77.9507368 L18.0865243,77.9507368 C15.8396893,77.9507368 14.0104078,76.1090767 14.0104078,73.8470376 L14.0104078,37.9146466 L2.75634951,37.9146466 C1.74229126,37.9146466 0.768,37.3541414 0.330563107,36.4132932 C-0.186407767,35.2922827 0.15161165,33.9710917 1.10601942,33.2304241 L43.4578641,0.601010526 C44.3923883,-0.119639098 45.664932,-0.119639098 46.5994563,0.601010526 L88.951301,33.2304241 C89.9057087,33.9710917 90.2437282,35.2722647 89.7267573,36.4132932 C89.2893204,37.3541414 88.3349126,37.9146466 87.3009709,37.9146466 L76.0469126,37.9146466 L76.0469126,73.8070015 C76.0469126,76.0890586 74.2176311,77.9507368 71.9509126,77.9507368 Z M19.1801165,72.7460451 L70.8772039,72.7460451 L70.8772039,35.3123008 C70.8772039,33.8710015 72.0304466,32.7099549 73.4620583,32.7099549 L79.7452427,32.7099549 L45.0286602,5.96584662 L10.3120777,32.7099549 L16.5952621,32.7099549 C18.0268738,32.7099549 19.1801165,33.8710015 19.1801165,35.3123008 L19.1801165,72.7460451 Z" id="Shape" stroke="#F07750"></path>
                    <path d="M48.5878058,27.3251008 C41.7876505,27.3251008 36.2600388,32.8901173 36.2600388,39.7362887 C36.2600388,42.5588331 37.1746796,45.2212331 38.9244272,47.4432361 L39.1232621,47.7034707 L29.8774369,58.7934677 C29.2212816,59.5741714 29.320699,60.7552361 30.0961553,61.4158316 C30.3745243,61.6560481 30.6926602,61.7961744 31.0505631,61.8362105 L31.1698641,61.8562286 L35.743068,65.7197113 C36.0810874,65.9999639 36.4986408,66.1601083 36.9360777,66.1601083 C37.4928155,66.1601083 38.0097864,65.9198917 38.3478058,65.4995128 C39.0039612,64.718809 38.9045437,63.5377444 38.1290874,62.8771489 L34.1325049,59.4940992 L36.2003883,57.0118617 L40.4554563,60.6151098 C40.7934757,60.8953624 41.2110291,61.0555068 41.648466,61.0555068 C42.2052039,61.0555068 42.7221748,60.8152902 43.0601942,60.3949113 C43.7163495,59.6142075 43.616932,58.4331429 42.8414757,57.7725474 L38.5864078,54.1692992 L41.9069515,50.1857083 L42.2052039,50.3658707 C44.1339029,51.5469353 46.3409709,52.1674947 48.6076893,52.1674947 C55.4078447,52.1674947 60.9354563,46.6024782 60.9354563,39.7563068 C60.9354563,32.9101353 55.3879612,27.3251008 48.5878058,27.3251008 L48.5878058,27.3251008 Z M48.5878058,48.3640662 C43.855534,48.3640662 40.0180194,44.4805654 40.0180194,39.7362887 C40.0180194,34.992012 43.8754175,31.1085113 48.5878058,31.1085113 C53.3200777,31.1085113 57.1575922,34.992012 57.1575922,39.7362887 C57.1575922,44.4805654 53.3200777,48.3640662 48.5878058,48.3640662 L48.5878058,48.3640662 Z" id="Shape"></path>
                </g>
            </g>
        </g>
    </g>
</svg>