<?xml version="1.0" encoding="UTF-8" standalone="no"?>
<svg width="44px" height="74px" viewBox="0 0 44 74" version="1.1" xmlns="http://www.w3.org/2000/svg" xmlns:xlink="http://www.w3.org/1999/xlink">
    <!-- Generator: Sketch 46.2 (44496) - http://www.bohemiancoding.com/sketch -->
    <title>fy_sel</title>
    <desc>Created with Sketch.</desc>
    <defs></defs>
    <g id="Page-1-Copy-2" stroke="none" stroke-width="1" fill="none" fill-rule="evenodd">
        <g id="房源列表－绑定1个小区" transform="translate(-447.000000, -1387.000000)" fill="#C81528">
            <g id="nav" transform="translate(0.000000, 1374.000000)">
                <g id="消息-copy-2" transform="translate(375.000000, 0.000000)">
                    <g id="Group" transform="translate(72.000000, 13.000000)">
                        <g id="消息">
                            <g id="房源-(1)" transform="translate(0.000000, 1.000000)" stroke="#F8F8F8" stroke-width="0.6" fill-rule="nonzero">
                                <path d="M27.5,15.4804928 L27.5,2.23682341 C27.5,1.02141068 26.5132656,0.0258726899 25.2960469,0.0258726899 L2.20395312,0.0258726899 C0.978742187,0.0258726899 0,1.01576181 0,2.23682341 L0,39.7631766 C0,40.9785893 0.986734375,41.9741273 2.20395312,41.9741273 L25.2960469,41.9741273 C25.4869141,41.9741273 25.6717656,41.9501088 25.8478945,41.904961 C26.0264957,41.951027 26.2101803,41.9742664 26.3945859,41.9741273 L41.8054141,41.9741273 C43.0181211,41.9741273 44,40.9832033 44,39.760848 L44,17.6937721 C44,16.4707269 43.0174336,15.4804928 41.8054141,15.4804928 L27.5,15.4804928 Z M3.3,3.337577 L24.2,3.337577 L24.2,38.662423 L3.3,38.662423 L3.3,3.337577 Z M27.5,18.7921971 L40.7,18.7921971 L40.7,38.662423 L27.5,38.662423 L27.5,18.7921971 Z M6.6,10.5129363 C6.6,9.598423 7.34752734,8.85708419 8.24510156,8.85708419 L18.1548984,8.85708419 C19.0634727,8.85708419 19.8,9.59204107 19.8,10.5129363 C19.8,11.4274497 19.0524727,12.1687885 18.1548984,12.1687885 L8.24510156,12.1687885 C7.33652734,12.1687885 6.6,11.4338316 6.6,10.5129363 Z M6.6,20.4480493 C6.6,19.5335359 7.34752734,18.7921971 8.24510156,18.7921971 L18.1548984,18.7921971 C19.0634727,18.7921971 19.8,19.527154 19.8,20.4480493 C19.8,21.3625626 19.0524727,22.1039014 18.1548984,22.1039014 L8.24510156,22.1039014 C7.33652734,22.1039014 6.6,21.3689446 6.6,20.4480493 Z M6.6,30.3831622 C6.6,29.4686489 7.34752734,28.7273101 8.24510156,28.7273101 L18.1548984,28.7273101 C19.0634727,28.7273101 19.8,29.4622669 19.8,30.3831622 C19.8,31.2976756 19.0524727,32.0390144 18.1548984,32.0390144 L8.24510156,32.0390144 C7.33652734,32.0390144 6.6,31.3040575 6.6,30.3831622 Z" id="Shape"></path>
                            </g>
                            <text id="房源" font-family="PingFangSC-Regular, PingFang SC" font-size="20" font-weight="normal">
                                <tspan x="2" y="69">房源</tspan>
                            </text>
                        </g>
                    </g>
                </g>
            </g>
        </g>
    </g>
</svg>