<?xml version="1.0" encoding="UTF-8" standalone="no"?>
<svg width="44px" height="44px" viewBox="0 0 44 44" version="1.1" xmlns="http://www.w3.org/2000/svg" xmlns:xlink="http://www.w3.org/1999/xlink">
    <!-- Generator: Sketch 46.2 (44496) - http://www.bohemiancoding.com/sketch -->
    <title>home</title>
    <desc>Created with Sketch.</desc>
    <defs></defs>
    <g id="Page-1-Copy-2" stroke="none" stroke-width="1" fill="none" fill-rule="evenodd">
        <g id="弹窗－分享" transform="translate(-72.000000, -1247.000000)" fill-rule="nonzero" fill="#C81528">
            <g id="nav" transform="translate(0.000000, 1234.000000)">
                <g id="消息">
                    <g id="Group" transform="translate(72.000000, 13.000000)">
                        <g id="消息">
                            <g id="首页" transform="translate(1.000000, 0.000000)">
                                <path d="M34.9405152,24.9213665 C34.1245045,24.9213665 33.4630379,25.589947 33.4630379,26.4146224 L33.4630379,40.4900533 L9.16006342,40.4900533 L9.16006342,26.4146224 C9.16006342,25.589947 8.4985476,24.9213665 7.68258616,24.9213665 C6.86662471,24.9213665 6.20510889,25.589947 6.20510889,26.4146224 L6.20510889,41.9833093 C6.20510889,42.8079848 6.86662471,43.4765652 7.68258616,43.4765652 L34.9405152,43.4765652 C35.7564767,43.4765652 36.4179925,42.8079848 36.4179925,41.9833093 L36.4179925,26.4146224 C36.4179925,25.589947 35.7564767,24.9213665 34.9405152,24.9213665 Z M42.0319629,19.0640201 L22.2962647,0.402800223 C21.7290119,-0.133527536 20.8476474,-0.134373705 20.2794589,0.400908745 L0.470083808,19.0629749 C-0.126817026,19.6252853 -0.159666244,20.5701679 0.396702423,21.1734433 C0.687716184,21.4889185 1.08220264,21.6484978 1.47782179,21.6484978 C1.83857247,21.6484978 2.20016043,21.5157474 2.48487029,21.2475586 L21.2849807,3.53629835 L40.0130887,21.2448708 C40.6089553,21.8082762 41.5439029,21.7768183 42.1014043,21.1745882 C42.6589057,20.5724078 42.6277802,19.6274754 42.0319629,19.0640201 Z" id="Shape"></path>
                            </g>
                        </g>
                    </g>
                </g>
            </g>
        </g>
    </g>
</svg>