<?xml version="1.0" encoding="UTF-8" standalone="no"?>
<svg width="44px" height="74px" viewBox="0 0 44 74" version="1.1" xmlns="http://www.w3.org/2000/svg" xmlns:xlink="http://www.w3.org/1999/xlink">
    <!-- Generator: Sketch 46.2 (44496) - http://www.bohemiancoding.com/sketch -->
    <title>kh_sel</title>
    <desc>Created with Sketch.</desc>
    <defs></defs>
    <g id="Page-1-Copy-2" stroke="none" stroke-width="1" fill="none" fill-rule="evenodd">
        <g id="客户列表－1个小区" transform="translate(-259.000000, -1247.000000)" fill="#C81528">
            <g id="nav" transform="translate(0.000000, 1234.000000)">
                <g id="消息-copy" transform="translate(187.000000, 0.000000)">
                    <g id="Group" transform="translate(72.000000, 13.000000)">
                        <g id="消息">
                            <g id="客户库" transform="translate(2.000000, 0.000000)">
                                <path d="M0.00103125,10.846 L7.80003125,10.846 L7.80003125,13.2605 L0.00103125,13.2605 L0.00103125,10.846 Z M0.00103125,19.87425 L7.80003125,19.87425 L7.80003125,22.28875 L0.00103125,22.28875 L0.00103125,19.87425 Z" id="Shape" fill-rule="nonzero"></path>
                                <path d="M38.0637813,0.011 L3.90053125,0.011 C3.17453125,0.011 1.80228125,0.451 1.80228125,2.12025 L1.80228125,7.84025 L4.20303125,7.84025 L4.20303125,2.42825 L37.7612813,2.42825 L37.7612813,41.547 L4.20303125,41.547 L4.20303125,34.3255 L1.80228125,34.3255 L1.80228125,41.85225 C1.80228125,42.581 2.24228125,43.9615 3.90053125,43.9615 L38.0637813,43.9615 C39.7247813,43.9615 40.1620313,42.581 40.1620313,41.85225 L40.1620313,2.123 C40.1620313,0.45375 38.7897813,0.011 38.0637813,0.011 Z" id="Shape" fill-rule="nonzero"></path>
                                <path d="M10.6792813,32.01825 C10.4684469,32.4128673 10.4781819,32.8887683 10.7049777,33.2744334 C10.9317735,33.6600985 11.3429372,33.8999338 11.7902813,33.9075 C12.2572636,33.9079064 12.6864875,33.6510064 12.9067813,33.23925 C14.5301446,30.2305362 17.6299092,28.3109859 21.0467813,28.1985 L21.3272813,28.20125 L21.5940313,28.1985 C25.0168726,28.305192 28.1242312,30.2255522 29.7505313,33.23925 C30.0947798,33.8432675 30.8538151,34.0687955 31.4720313,33.75075 C32.0864819,33.4091027 32.3120141,32.6369001 31.9780313,32.01825 C30.7075211,29.663116 28.6975461,27.7913268 26.2580313,26.6915 C28.7170895,25.0307823 30.1858994,22.25304 30.1740312,19.28575 C30.1740312,16.90425 29.2527812,14.66575 27.5835313,12.98275 C25.9337303,11.3068556 23.6789702,10.3653074 21.3272812,10.37025 C18.9650312,10.37025 16.7430312,11.29975 15.0737812,12.98275 C13.4076661,14.6564682 12.4756659,16.9241373 12.4832812,19.28575 C12.4714131,22.25304 13.940223,25.0307823 16.3992812,26.6915 C13.9593077,27.7906367 11.9491357,29.6626094 10.6792812,32.01825 L10.6792813,32.01825 Z M15.0215312,19.28575 C15.0123764,15.7919827 17.8308163,12.9489492 21.3245312,12.92775 C24.8203977,12.9459301 27.6421746,15.7898482 27.6330312,19.28575 C27.6568545,22.6851759 24.9849461,25.4932325 21.5885312,25.63825 L21.0770312,25.63825 C17.6751996,25.5004265 14.9952306,22.690291 15.0187812,19.28575 L15.0215312,19.28575 Z M0.00103125,28.9025 L7.80003125,28.9025 L7.80003125,31.317 L0.00103125,31.317 L0.00103125,28.9025 Z" id="Shape" fill-rule="nonzero"></path>
                                <text id="客户" font-family="PingFangSC-Regular, PingFang SC" font-size="20" font-weight="normal">
                                    <tspan x="0" y="69">客户</tspan>
                                </text>
                            </g>
                        </g>
                    </g>
                </g>
            </g>
        </g>
    </g>
</svg>