<?xml version="1.0" encoding="UTF-8" standalone="no"?>
<svg width="44px" height="74px" viewBox="0 0 44 74" version="1.1" xmlns="http://www.w3.org/2000/svg" xmlns:xlink="http://www.w3.org/1999/xlink">
    <!-- Generator: Sketch 46.2 (44496) - http://www.bohemiancoding.com/sketch -->
    <title>mine_sel</title>
    <desc>Created with Sketch.</desc>
    <defs></defs>
    <g id="Page-1-Copy-2" stroke="none" stroke-width="1" fill="none" fill-rule="evenodd">
        <g id="我的" transform="translate(-634.000000, -1247.000000)" fill="#C81528">
            <g id="nav" transform="translate(0.000000, 1234.000000)">
                <g id="消息-copy-4" transform="translate(562.000000, 0.000000)">
                    <g id="Group" transform="translate(72.000000, 13.000000)">
                        <g id="消息">
                            <g id="我的" transform="translate(2.000000, 0.000000)" stroke="#F8F8F8" stroke-width="0.3" fill-rule="nonzero">
                                <path d="M1.75799485,43.948093 C1.18938643,43.948093 0.639120263,43.6667654 0.308960538,43.1585606 C-0.195450146,42.3690282 0.0429985501,41.3253934 0.840884515,40.8262638 C1.13435985,40.6447621 8.12274064,36.3159465 13.6712582,36.043694 L13.6987715,36.043694 L13.6987715,35.0998852 C7.27899914,32.4681105 3.05112046,25.8342234 3.05112046,18.1930019 C3.05112046,8.19225823 10.8282162,0.0519070216 20.393677,0.0519070216 C29.9591379,0.0519070216 37.7362336,8.18318315 37.7362336,18.1930019 C37.7362336,25.8251483 33.691777,32.2866088 27.3362023,34.9909842 L27.3362023,36.0618442 C32.9214043,36.5609739 39.8547585,40.635687 40.1574049,40.8081136 C40.9644621,41.2890932 41.2304241,42.3236528 40.7443556,43.1222603 C40.2582871,43.9208678 39.2127813,44.1840452 38.4057242,43.7030657 C38.3415265,43.6667654 31.6741343,39.7554038 26.9877004,39.4105506 L25.6303771,39.4105506 C24.6857535,39.4105506 23.9245519,38.6573185 23.9245519,37.7225847 L23.9245519,33.8202982 C23.9245519,33.1033664 24.3831071,32.4590354 25.0801109,32.2230832 C30.7019973,30.3082403 34.3245831,24.7996638 34.3245831,18.1748517 C34.3337542,10.0526506 28.0882328,3.42783862 20.4028481,3.42783862 C12.7174634,3.42783862 6.47194202,10.0526507 6.47194202,18.1930019 C6.47194202,24.826889 10.27795,30.4988171 15.9365208,32.3138341 C16.6426957,32.5407112 17.1195931,33.1850423 17.1195931,33.9201241 L17.1195931,37.7316598 C17.1195931,38.6663935 16.3583915,39.4196256 15.4137678,39.4196256 L13.7629692,39.4196256 C9.1865886,39.6465028 2.73930288,43.6395401 2.67510514,43.6849156 C2.39080096,43.8573421 2.06981238,43.948093 1.75799485,43.948093 Z" id="Shape"></path>
                            </g>
                            <text id="我的" font-family="PingFangSC-Regular, PingFang SC" font-size="20" font-weight="normal">
                                <tspan x="2" y="69">我的</tspan>
                            </text>
                        </g>
                    </g>
                </g>
            </g>
        </g>
    </g>
</svg>