<?xml version="1.0" encoding="UTF-8" standalone="no"?>
<svg width="48px" height="48px" viewBox="0 0 48 48" version="1.1" xmlns="http://www.w3.org/2000/svg" xmlns:xlink="http://www.w3.org/1999/xlink">
    <!-- Generator: Sketch 46.2 (44496) - http://www.bohemiancoding.com/sketch -->
    <title>next</title>
    <desc>Created with Sketch.</desc>
    <defs>
        <rect id="path-1" x="0" y="64" width="750" height="100"></rect>
        <filter x="-0.1%" y="-0.5%" width="100.1%" height="101.0%" filterUnits="objectBoundingBox" id="filter-2">
            <feOffset dx="0" dy="1" in="SourceAlpha" result="shadowOffsetInner1"></feOffset>
            <feComposite in="shadowOffsetInner1" in2="SourceAlpha" operator="arithmetic" k2="-1" k3="1" result="shadowInnerInner1"></feComposite>
            <feColorMatrix values="0 0 0 0 0.8   0 0 0 0 0.8   0 0 0 0 0.8  0 0 0 0.5 0" type="matrix" in="shadowInnerInner1" result="shadowMatrixInner1"></feColorMatrix>
            <feOffset dx="0" dy="-1" in="SourceAlpha" result="shadowOffsetInner2"></feOffset>
            <feComposite in="shadowOffsetInner2" in2="SourceAlpha" operator="arithmetic" k2="-1" k3="1" result="shadowInnerInner2"></feComposite>
            <feColorMatrix values="0 0 0 0 0.8   0 0 0 0 0.8   0 0 0 0 0.8  0 0 0 0.5 0" type="matrix" in="shadowInnerInner2" result="shadowMatrixInner2"></feColorMatrix>
            <feMerge>
                <feMergeNode in="shadowMatrixInner1"></feMergeNode>
                <feMergeNode in="shadowMatrixInner2"></feMergeNode>
            </feMerge>
        </filter>
    </defs>
    <g id="Page-1-Copy-2" stroke="none" stroke-width="1" fill="none" fill-rule="evenodd">
        <g id="发布租赁" transform="translate(-690.000000, -242.000000)">
            <g id="小区信息" transform="translate(0.000000, 152.000000)">
                <g id="Rectangle">
                    <use fill="#FFFFFF" fill-rule="evenodd" xlink:href="#path-1"></use>
                    <use fill="black" fill-opacity="1" filter="url(#filter-2)" xlink:href="#path-1"></use>
                </g>
                <g id="返回-copy" transform="translate(690.000000, 90.000000)" fill-rule="nonzero" fill="#999999">
                    <g id="返回-(1)" transform="translate(24.000000, 24.000000) rotate(-270.000000) translate(-24.000000, -24.000000) translate(12.000000, 18.000000)">
                        <path d="M23.4956366,9.2180525 L12.9084962,0.326838609 C12.6449694,0.105455108 12.3221602,-0.000389121588 12.002047,0.0038505683 C11.6813116,-0.000833869224 11.3577025,0.10501039 11.0936425,0.326808971 L0.504161631,9.2180525 C-0.0812559228,9.70899789 -0.156210702,10.5819313 0.335557809,11.1654682 C0.607202229,11.4923995 1.00064074,11.660001 1.39404964,11.660001 C1.7078228,11.660001 2.02399568,11.5545422 2.28153794,11.3365979 L12.0010397,3.17576866 L21.7205711,11.3365386 C21.978143,11.5545126 22.2942862,11.6599417 22.608089,11.6599417 C23.0014683,11.6599417 23.3949068,11.4923698 23.6665512,11.1654682 C24.1583197,10.581961 24.0810541,9.70902753 23.4956366,9.2180525 Z" id="Shape"></path>
                    </g>
                </g>
            </g>
        </g>
    </g>
</svg>