<?xml version="1.0" encoding="UTF-8" standalone="no"?>
<svg width="50px" height="50px" viewBox="0 0 50 50" version="1.1" xmlns="http://www.w3.org/2000/svg" xmlns:xlink="http://www.w3.org/1999/xlink">
    <!-- Generator: Sketch 46.2 (44496) - http://www.bohemiancoding.com/sketch -->
    <title>openeye</title>
    <desc>Created with Sketch.</desc>
    <defs></defs>
    <g id="Page-1-Copy-2" stroke="none" stroke-width="1" fill="none" fill-rule="evenodd">
        <g id="06已注册－输入密码已知" transform="translate(-650.000000, -550.000000)">
            <g id="Group-2" transform="translate(650.000000, 550.000000)">
                <rect id="wenhao" x="0" y="0" width="50" height="50"></rect>
                <g id="Group" transform="translate(4.000000, 12.000000)" stroke="#C71628">
                    <g id="眼睛闭着-copy" transform="translate(16.000000, 8.000000) scale(1, -1) translate(-16.000000, -8.000000) " fill-rule="nonzero" fill="#C71628">
                        <path d="M31.7965259,1.86084462 C32.1392191,1.33864542 32.024988,0.653258964 31.5680637,0.261609562 C31.0458645,-0.146358566 30.3604781,-0.03212749 29.9688287,0.490071713 C29.9035538,0.555346614 23.5555697,8.04564143 16.0163187,8.04564143 C8.68921116,8.04564143 2.06380876,0.490071713 1.99853386,0.441115538 C1.59056574,-0.0158087649 0.856223108,-0.0810836653 0.399298805,0.326884462 C-0.057625498,0.73485259 -0.122900398,1.46919522 0.285067729,1.92611952 C0.399298805,2.1056255 1.77007171,3.63958566 3.94046215,5.35305179 L1.01941036,8.38833466 C0.562486056,8.84525896 0.611442231,9.59592032 1.08468526,9.98756972 C1.19891633,10.2160319 1.49265339,10.3302629 1.77007171,10.3302629 C2.06380876,10.3302629 2.34122709,10.2160319 2.56968924,9.98756972 L5.71920319,6.7238247 C7.20420717,7.75190438 8.98294821,8.73102789 10.9248765,9.41641434 L9.71729084,13.4797769 C9.53778486,14.1162072 9.89679681,14.7363187 10.5169084,14.9158247 L10.8596016,14.9158247 C11.3818008,14.9158247 11.8387251,14.5731315 11.9529562,14.0509323 L13.1605418,9.98756972 C14.0743904,10.1670757 15.0535139,10.2813068 16.0163187,10.2813068 C16.9791235,10.2813068 17.958247,10.1670757 18.8720956,9.98756972 L20.0796813,13.9856574 C20.1939124,14.5078566 20.7161116,14.8505498 21.1730359,14.8505498 C21.2872669,14.8505498 21.401498,14.8505498 21.4667729,14.7852749 C22.1032032,14.6057689 22.4458964,13.9856574 22.2663904,13.3492271 L21.0588048,9.35113944 C23.0007331,8.66575299 24.7794741,7.68662948 26.2644781,6.6585498 L29.3487171,9.85701992 C29.5771793,10.0854821 29.8709163,10.1997131 30.1483347,10.1997131 C30.425753,10.1997131 30.71949,10.0854821 30.9479522,9.85701992 C31.4048765,9.40009562 31.4048765,8.71470916 31.0132271,8.25778486 L28.0758566,5.23882072 C30.425753,3.52535458 31.7965259,1.86084462 31.7965259,1.86084462 L31.7965259,1.86084462 Z" id="Shape"></path>
                    </g>
                    <circle id="Oval-2" stroke-width="3" cx="16" cy="18" r="6"></circle>
                </g>
            </g>
        </g>
    </g>
</svg>