<?xml version="1.0" encoding="UTF-8" standalone="no"?>
<svg width="28px" height="28px" viewBox="0 0 28 28" version="1.1" xmlns="http://www.w3.org/2000/svg" xmlns:xlink="http://www.w3.org/1999/xlink">
    <!-- Generator: Sketch 46.2 (44496) - http://www.bohemiancoding.com/sketch -->
    <title>right_icon</title>
    <desc>Created with Sketch.</desc>
    <defs></defs>
    <g id="Page-1-Copy-2" stroke="none" stroke-width="1" fill="none" fill-rule="evenodd">
        <g id="发布租赁" transform="translate(-30.000000, -1066.000000)" fill-rule="nonzero" fill="#C81528">
            <g id="Group" transform="translate(30.000000, 1065.000000)">
                <g id="勾选" transform="translate(0.000000, 1.000000)">
                    <g transform="translate(2.000000, 2.000000)" id="Shape">
                        <path d="M21.3139579,0.013824864 L2.67817801,0.013824864 C1.20803226,0.013824864 0.0159202717,1.2057894 0.0159202717,2.67874486 L0.0159202717,21.3331118 C0.0159202717,22.8034855 1.20803226,23.9980561 2.67817801,23.9980561 L21.3139335,23.9980561 C22.7840062,23.9980561 23.9761426,22.8034855 23.9761426,21.3331118 L23.9761426,2.67874486 C23.9761669,1.2057894 22.7840306,0.013824864 21.3139579,0.013824864 Z M20.8381593,7.79510774 L10.4529526,18.1893357 C10.1728994,18.4710086 9.80839217,18.6149747 9.44191416,18.6219648 C9.08061871,18.6515325 8.70915275,18.5283417 8.43287087,18.2518079 L3.01098152,12.8257632 C2.51306582,12.3260831 2.51306582,11.5165993 3.01098152,11.0169192 C3.51016246,10.5172635 4.31993241,10.5172635 4.81911335,11.0169192 L9.14210388,15.3452557 L18.7608017,5.71316414 C19.3353853,5.14068506 20.2647679,5.14068506 20.8381593,5.71316414 C21.4128159,6.2910258 21.4128159,7.2200226 20.8381593,7.79510774 Z"></path>
                    </g>
                </g>
            </g>
        </g>
    </g>
</svg>