<?xml version="1.0" encoding="UTF-8" standalone="no"?>
<svg width="300px" height="300px" viewBox="0 0 300 300" version="1.1" xmlns="http://www.w3.org/2000/svg" xmlns:xlink="http://www.w3.org/1999/xlink">
    <!-- Generator: Sketch 46.2 (44496) - http://www.bohemiancoding.com/sketch -->
    <title>shiliu</title>
    <desc>Created with Sketch.</desc>
    <defs>
        <path d="M140.275882,0.704117647 C63.2398529,0.704117647 0.788529412,63.1533824 0.788529412,140.190441 L0.788529412,140.190441 C0.788529412,217.223382 63.2398529,279.674706 140.275882,279.674706 L140.275882,279.674706 C217.310882,279.674706 279.760147,217.223382 279.760147,140.190441 L279.760147,140.190441 C279.760147,63.1533824 217.310882,0.704117647 140.275882,0.704117647 L140.275882,0.704117647 Z" id="path-1"></path>
        <path d="M140.275882,0.704117647 C63.2398529,0.704117647 0.788529412,63.1533824 0.788529412,140.190441 L0.788529412,140.190441 C0.788529412,217.223382 63.2398529,279.674706 140.275882,279.674706 L140.275882,279.674706 C217.310882,279.674706 279.760147,217.223382 279.760147,140.190441 L279.760147,140.190441 C279.760147,63.1533824 217.310882,0.704117647 140.275882,0.704117647" id="path-3"></path>
    </defs>
    <g id="Page-1-Copy-2" stroke="none" stroke-width="1" fill="none" fill-rule="evenodd">
        <g id="帐号未开通" transform="translate(-225.000000, -328.000000)">
            <g id="Group-4" transform="translate(220.000000, 328.000000)">
                <g id="找不到对于社区小石榴" transform="translate(5.000000, 0.000000)">
                    <g id="图">
                        <g id="Group-7" transform="translate(11.000000, 11.000000)">
                            <g id="Group-3">
                                <mask id="mask-2" fill="white">
                                    <use xlink:href="#path-1"></use>
                                </mask>
                                <g id="Clip-2"></g>
                                <path d="M140.275882,0.704117647 C63.2398529,0.704117647 0.788529412,63.1533824 0.788529412,140.190441 L0.788529412,140.190441 C0.788529412,217.223382 63.2398529,279.674706 140.275882,279.674706 L140.275882,279.674706 C217.310882,279.674706 279.760147,217.223382 279.760147,140.190441 L279.760147,140.190441 C279.760147,63.1533824 217.310882,0.704117647 140.275882,0.704117647 L140.275882,0.704117647 Z" id="Fill-1" mask="url(#mask-2)"></path>
                            </g>
                            <g id="Group-6">
                                <mask id="mask-4" fill="white">
                                    <use xlink:href="#path-3"></use>
                                </mask>
                                <g id="Clip-5"></g>
                                <path d="M-15.4411765,228.961353 C-15.4411765,228.961353 102.820735,199.646794 286.445147,228.961353 C286.445147,228.961353 217.900735,306.460618 123.105294,301.378412 C28.3108824,296.295176 -15.4411765,228.961353 -15.4411765,228.961353" id="Fill-4" fill="#D5E5A8" mask="url(#mask-4)"></path>
                            </g>
                        </g>
                        <g id="Group-58" transform="translate(62.470588, 60.411765)">
                            <path d="M181.343853,122.013088 C174.275912,125.591324 165.617529,109.033235 165.617529,109.033235 L176.086647,95.9905882 C191.662676,117.661765 181.343853,122.013088 181.343853,122.013088" id="Fill-8" fill="#EE5651"></path>
                            <path d="M176.444574,98.35175 C176.444574,98.35175 183.706044,122.666456 173.203985,119.597779 C165.577074,117.369103 176.444574,98.35175 176.444574,98.35175" id="Fill-10" fill="#D43030"></path>
                            <path d="M142.335221,180.825338 C142.335221,187.240632 118.154338,192.443279 88.3261029,192.443279 C58.4978676,192.443279 34.3169853,187.240632 34.3169853,180.825338 C34.3169853,174.407985 58.4978676,169.207397 88.3261029,169.207397 C118.154338,169.207397 142.335221,174.407985 142.335221,180.825338" id="Fill-12" fill-opacity="0.400000006" fill="#000000"></path>
                            <path d="M114.228471,21.0081324 C150.108618,29.2701912 176.472882,57.3216618 176.472882,95.9256324 C176.472882,148.355632 138.550382,173.352838 91.7667059,173.352838 C44.9850882,173.352838 7.06155882,148.355632 7.06155882,95.9256324 C7.06155882,57.3391618 33.4021471,29.2938676 69.2586176,21.0204853 C69.2586176,21.0204853 87.8971471,15.6376912 114.228471,21.0081324" id="Fill-14" fill="#EE5651"></path>
                            <path d="M155.547721,92.5975441 C153.907868,38.7325441 99.9574265,38.9446029 99.9574265,38.9446029 C99.9574265,38.9446029 41.85125,33.2498971 38.5468382,85.8250441 C35.1075735,140.518721 100.788162,138.640044 100.788162,138.640044 C100.788162,138.640044 157.007426,140.518721 155.547721,92.5975441" id="Fill-16" fill="#EED2BE"></path>
                            <path d="M153.434544,89.4036912 C151.86675,37.1044265 98.6852794,37.2711912 98.6852794,37.2711912 C98.6852794,37.2711912 41.9770441,31.7267794 38.2845441,82.7403088 C34.5127794,134.854279 99.5798382,134.063691 99.5798382,134.063691 C99.5798382,134.063691 154.853074,136.675309 153.434544,89.4036912" id="Fill-18" fill="#FFEBE0"></path>
                            <path d="M62.1577353,69.9313382 C56.1675882,69.9313382 51.3118529,74.3392794 51.3118529,79.7786912 C51.3118529,85.2160441 56.1675882,89.6239853 62.1577353,89.6239853 C68.1478824,89.6239853 73.0025882,85.2160441 73.0025882,79.7786912 C73.0025882,74.3392794 68.1478824,69.9313382 62.1577353,69.9313382" id="Fill-20" fill="#FF8E8E"></path>
                            <path d="M136.010515,68.0927059 C130.167574,68.0927059 125.43125,72.5109412 125.43125,77.9606471 C125.43125,83.4082941 130.167574,87.8255 136.010515,87.8255 C141.853456,87.8255 146.589779,83.4082941 146.589779,77.9606471 C146.589779,72.5109412 141.853456,68.0927059 136.010515,68.0927059" id="Fill-22" fill="#FF8E8E"></path>
                            <path d="M121.101647,168.779985 L106.853559,172.067926 C107.309588,178.372044 109.096647,185.086897 115.084735,184.597926 C121.144882,184.103809 122.140324,176.90925 121.101647,168.779985" id="Fill-24" fill="#EE5651"></path>
                            <path d="M62.6714118,182.905265 C68.6595,183.396294 70.4455294,176.680412 70.9036176,170.375265 L56.6545,167.088353 C55.6158235,175.217618 56.6133235,182.409088 62.6714118,182.905265" id="Fill-26" fill="#EE5651"></path>
                            <path d="M10.7192647,122.053338 C10.7192647,122.053338 23.3892647,114.70025 24.3877941,108.208779 C24.7933824,105.575544 8.13029412,113.420691 8.13029412,113.420691 C8.13029412,113.420691 10.5092647,121.194809 10.7192647,122.053338" id="Fill-28" fill="#D43030"></path>
                            <path d="M1.92108824,112.575544 C1.92108824,112.575544 -5.80670588,105.332603 17.6185882,93.7774559 L24.7318235,107.907162 C24.7318235,107.907162 6.10873529,119.300691 1.92108824,112.575544" id="Fill-30" fill="#EE5651"></path>
                            <path d="M102.914,19.4359118 C103.260912,15.3965 104.679441,10.8969412 109.384882,7.04076471 C109.767824,6.72679412 110.047824,6.28723529 109.084294,6.15855882 C105.950765,5.74164706 99.1545882,5.95988235 94.4841471,12.6191471 C94.2515,12.9495882 93.6091471,13.0762059 93.4073824,12.3782647 C92.4922353,9.2015 89.9485588,4.70708824 86.2488529,1.28120588 C86.0759118,1.12164706 85.7763529,0.891058824 85.4654706,0.936352941 C85.1494412,0.920911765 84.8745882,1.18238235 84.7181176,1.35738235 C81.3776765,5.13532353 79.2838529,9.93341176 78.6898824,13.1884118 C78.5591471,13.9028235 77.9229706,13.7679706 77.6563529,13.4601765 C72.3476765,7.30017647 65.5607647,7.76135294 62.4859118,8.49017647 C61.5378235,8.7115 61.8620882,9.12223529 62.2748824,9.39708824 C67.3138529,12.7478235 69.2604706,17.3081176 70.0284118,20.9851765" id="Fill-32" fill="#EE5651"></path>
                            <path d="M122.611074,72.7411176 C120.192985,72.7411176 118.490338,72.5136176 118.419309,72.5043529 L118.282397,72.4796471 C117.284897,72.2624412 116.501515,71.6890588 116.077397,70.8634706 C115.329015,69.4037647 115.969309,67.7556765 116.106221,67.4406765 L116.139162,67.3634706 L116.179309,67.2893529 C117.795485,64.3606765 121.210044,62.6806765 125.546956,62.6806765 C128.430338,62.6806765 131.186074,63.4599412 132.739456,64.7168529 C134.182691,65.8883235 134.844603,67.1328824 134.706662,68.4175882 C134.571809,69.6868529 133.645338,70.5803824 132.894897,70.9612647 L132.772397,71.0168529 C129.316662,72.4425882 125.340044,72.7411176 122.611074,72.7411176 L122.611074,72.7411176 Z" id="Fill-34" fill="#FFFFFF"></path>
                            <path d="M125.547265,60.9412794 C120.556676,60.9412794 116.587265,62.9496618 114.657118,66.4496618 L114.575794,66.5968676 L114.508882,66.7512794 C114.241235,67.3709853 113.452706,69.5574559 114.5305,71.6574559 C115.196529,72.9534853 116.396824,73.8490735 117.912118,74.1795147 L118.048,74.2093676 L118.184912,74.2278971 C118.261088,74.2381912 120.076971,74.4801029 122.611382,74.4801029 C125.496824,74.4801029 129.716382,74.1589265 133.434618,72.6251029 L133.559176,72.5746618 L133.679618,72.5128971 C134.874765,71.9086324 136.226382,70.5631912 136.436382,68.6031912 C136.576382,67.2906912 136.239765,65.3173088 133.837118,63.3676029 C131.956382,61.8471618 128.858882,60.9412794 125.547265,60.9412794 M125.547265,64.4196618 C128.048735,64.4196618 130.430794,65.0867206 131.6455,66.0687794 C134.359029,68.2706912 132.108735,69.4092206 132.108735,69.4092206 C128.972118,70.7031912 125.318735,71.0017206 122.611382,71.0017206 C120.282853,71.0017206 118.652265,70.7803971 118.652265,70.7803971 C116.738588,70.3634853 117.703147,68.1296618 117.703147,68.1296618 C119.188588,65.4356912 122.459029,64.4196618 125.547265,64.4196618" id="Fill-36" fill="#743845"></path>
                            <path d="M74.2975882,74.6260735 C70.4290588,74.6260735 67.3500882,73.9703382 67.2203824,73.9425441 L67.0875882,73.9085735 C66.0911176,73.6100441 65.3406765,72.9656324 64.9731765,72.09475 C64.3225882,70.5496029 65.1028824,68.9169559 65.2655294,68.6050441 L65.3056765,68.5288676 L65.3530294,68.4568088 C67.0484706,65.8626912 70.1305294,64.4359265 74.0299412,64.4359265 C77.3343529,64.4359265 80.6912647,65.5188676 82.3825882,67.1329853 C83.7537647,68.43725 84.3261176,69.7579853 84.0852353,71.0550441 C83.8474412,72.3346029 82.8386176,73.1746029 82.047,73.5029853 L81.9831765,73.5307794 L81.9162647,73.5513676 C79.7359706,74.26475 77.1717059,74.6260735 74.2975882,74.6260735 L74.2975882,74.6260735 Z" id="Fill-38" fill="#FFFFFF"></path>
                            <path d="M74.0301471,62.6591618 C69.5110294,62.6591618 65.9019118,64.3731324 63.8667647,67.4840147 L63.7720588,67.6291618 L63.6917647,67.7815147 C63.3716176,68.3940147 62.3998529,70.5619559 63.3366176,72.7844559 C63.9141176,74.1535735 65.065,75.15725 66.5772059,75.6091618 L66.71,75.6493088 L66.8458824,75.6781324 C66.9817647,75.7079853 70.2408824,76.4028382 74.2977941,76.4028382 C77.3602941,76.4028382 80.1088235,76.0116618 82.4682353,75.2406324 L82.6010294,75.1973971 L82.7297059,75.1438676 C83.9886765,74.6198971 85.4648529,73.3557794 85.8313235,71.3793088 C86.0773529,70.0554853 85.8910294,68.0213676 83.6077941,65.8462206 C81.5777941,63.9109265 77.8173529,62.6591618 74.0301471,62.6591618 M74.0301471,66.2116618 C76.9557353,66.2116618 79.8422059,67.1638676 81.1577941,68.4187206 C83.7375,70.8759265 81.3647059,71.8631324 81.3647059,71.8631324 C79.0639706,72.6156324 76.545,72.8503382 74.2977941,72.8503382 C70.5744118,72.8503382 67.5963235,72.2059265 67.5963235,72.2059265 C65.6857353,71.6346029 66.8397059,69.4285735 66.8397059,69.4285735 C68.3683824,67.0918088 71.2177941,66.2116618 74.0301471,66.2116618" id="Fill-40" fill="#743845"></path>
                            <path d="M124.959882,49.4687941 C125.718559,48.9757059 125.934735,47.9607059 125.440618,47.2020294 C125.297529,46.9817353 123.973706,45.0412941 121.698706,44.8755588 C120.139147,44.7612941 118.651647,45.4952647 117.283559,47.0507059 C116.685471,47.7321765 116.751353,48.7646765 117.430765,49.3627647 C118.111206,49.9629118 119.145765,49.8970294 119.743853,49.2176176 C120.114441,48.7965882 120.829882,48.0976176 121.460912,48.1439412 C122.053853,48.1871765 122.607676,48.8562941 122.692088,48.9870294 C123.186206,49.7467353 124.201206,49.9618824 124.959882,49.4687941" id="Fill-42" fill="#743845"></path>
                            <path d="M107.955029,111.2475 C107.955029,116.348235 106.134,120.484412 103.887824,120.484412 C101.642676,120.484412 99.8216471,116.348235 99.8216471,111.2475 C99.8216471,106.144706 101.642676,102.008529 103.887824,102.008529 C106.134,102.008529 107.955029,106.144706 107.955029,111.2475" id="Fill-44" fill="#C22A2A"></path>
                            <path d="M75.6361324,48.6716176 C76.4411324,48.1476471 76.6696618,47.0708824 76.1467206,46.2648529 C75.9943676,46.0301471 74.5881912,43.9702941 72.1721618,43.7932353 C70.5158382,43.6717647 68.9367206,44.4510294 67.4831912,46.1052941 C66.8480441,46.8258824 66.9190735,47.9252941 67.6406912,48.5614706 C68.3623088,49.1966176 69.4617206,49.1255882 70.0968676,48.4029412 C70.4890735,47.9572059 71.2498088,47.215 71.9199559,47.2644118 C72.5489265,47.3107353 73.1387794,48.0210294 73.2283382,48.16 C73.7523088,48.9660294 74.8290735,49.1945588 75.6361324,48.6716176" id="Fill-46" fill="#743845"></path>
                            <path d="M102.829074,97.6621471 C101.134662,97.7331765 97.1045147,98.4949412 96.2737794,103.989941 C96.0153971,105.698765 95.99275,107.987147 96.1996618,111.415088 C96.4065735,114.868765 96.6958382,117.050088 97.1642206,118.707441 C97.6624559,120.456412 99.3661324,124.509206 104.428779,124.293029 C105.75775,124.234353 110.154368,123.619794 111.010838,118.093912 C111.264074,116.454059 111.282603,114.2645 111.074662,110.775824 C110.868779,107.377735 110.564074,105.098618 110.085397,103.382588 C108.580397,98.0049412 104.509074,97.5900882 102.829074,97.6621471 M103.639221,104.240088 C105.335691,104.167 105.484956,105.351853 105.823632,111.000235 C106.163338,116.650676 106.134515,118.218471 104.327897,118.292588 C102.577897,118.367735 101.788338,116.840088 101.448632,111.189647 C101.108926,105.538176 101.888191,104.313176 103.639221,104.240088" id="Fill-48" fill="#E5666B"></path>
                            <path d="M107.510118,119.028412 C108.290412,119.298118 108.703206,120.145324 108.434529,120.923559 C108.164824,121.704882 107.315559,122.115618 106.537324,121.849 C105.758059,121.579294 105.344235,120.729 105.612912,119.949735 C105.882618,119.1715 106.730853,118.757676 107.510118,119.028412" id="Fill-50" fill="#FF8E8E"></path>
                            <path d="M17.7648676,13.0844412 C16.8600147,13.0844412 16.1260441,13.8184118 16.1260441,14.7232647 L16.1260441,46.3601765 C16.1260441,47.264 16.8600147,47.9979706 17.7648676,47.9979706 C18.6697206,47.9979706 19.4036912,47.264 19.4036912,46.3601765 L19.4036912,14.7232647 C19.4036912,13.8184118 18.6697206,13.0844412 17.7648676,13.0844412" id="Fill-52" fill="#FF8E8E"></path>
                            <path d="M29.7488676,13.0844412 C28.8440147,13.0844412 28.1100441,13.8184118 28.1100441,14.7232647 L28.1100441,44.5844412 C28.1100441,45.4882647 28.8440147,46.2222353 29.7488676,46.2222353 C30.6537206,46.2222353 31.3876912,45.4882647 31.3876912,44.5844412 L31.3876912,14.7232647 C31.3876912,13.8184118 30.6537206,13.0844412 29.7488676,13.0844412" id="Fill-54" fill="#FF8E8E"></path>
                            <path d="M41.4010882,13.0844412 C40.4962353,13.0844412 39.7622647,13.8184118 39.7622647,14.7232647 L39.7622647,43.0331176 C39.7622647,43.939 40.4962353,44.6719412 41.4010882,44.6719412 C42.3059412,44.6719412 43.0399118,43.939 43.0399118,43.0331176 L43.0399118,14.7232647 C43.0399118,13.8184118 42.3059412,13.0844412 41.4010882,13.0844412" id="Fill-56" fill="#FF8E8E"></path>
                        </g>
                        <rect id="没有小石榴" x="0" y="0" width="300" height="300"></rect>
                    </g>
                </g>
            </g>
        </g>
    </g>
</svg>