<?xml version="1.0" encoding="UTF-8" standalone="no"?>
<svg width="214px" height="300px" viewBox="0 0 214 300" version="1.1" xmlns="http://www.w3.org/2000/svg" xmlns:xlink="http://www.w3.org/1999/xlink">
    <!-- Generator: Sketch 46.2 (44496) - http://www.bohemiancoding.com/sketch -->
    <title>tjkh_btn</title>
    <desc>Created with Sketch.</desc>
    <defs>
        <rect id="path-1" x="0" y="0" width="214" height="300" rx="10"></rect>
    </defs>
    <g id="Page-1-Copy-2" stroke="none" stroke-width="1" fill="none" fill-rule="evenodd">
        <g id="首页－彩块" transform="translate(-496.000000, -518.000000)">
            <g id="Group-6" transform="translate(496.000000, 518.000000)">
                <g id="租房-copy-2">
                    <mask id="mask-2" fill="white">
                        <use xlink:href="#path-1"></use>
                    </mask>
                    <use id="Mask" fill="#108EE9" xlink:href="#path-1"></use>
                    <g id="添加人" mask="url(#mask-2)" fill-opacity="0.1" fill="#000000" fill-rule="nonzero">
                        <g transform="translate(155.683452, 227.572539) rotate(-15.000000) translate(-155.683452, -227.572539) translate(96.683452, 163.072539)" id="Shape">
                            <path d="M77.8131923,77.3723738 C86.3126726,68.8119171 91,57.428 91,45.3268927 C91,33.2257854 86.3126726,21.8267682 77.8131923,13.2664429 C69.3137121,4.70598616 58.0108831,0 45.9811102,0 C33.9661996,0 22.6632402,4.72095498 14.1638903,13.2814117 C5.66441011,21.8418684 0.977082668,33.2257854 0.977082668,45.3268927 C0.977082668,57.428 5.66441011,68.8120484 14.1638903,77.3723738 C18.6435382,81.8841592 23.8944557,85.3202907 29.6201811,87.5612802 C23.3161338,89.8918201 17.5310899,93.5968651 12.6362132,98.5120207 C6.3024415,104.891232 2.00074888,112.779405 0.0724443771,121.354699 C-0.342914838,123.222125 1.08111803,125 2.97982851,125 C4.37413699,125 5.57562805,124.028996 5.88721265,122.654491 C10.0552759,104.353405 26.3570169,90.6537854 45.7738217,90.6537854 C46.0408198,90.6537854 46.32268,90.6537854 46.589678,90.6687542 L46.6341342,90.6239791 C58.4116408,90.4745535 69.4624644,85.7835362 77.8135834,77.3725051 L77.8131923,77.3723738 Z M6.86590117,45.3268927 C6.86590117,23.6046436 24.4135895,5.91609689 45.9959724,5.91609689 C67.5634932,5.91609689 85.1260437,23.5896748 85.1260437,45.3268927 C85.1260437,66.7502907 68.0677648,84.2296679 46.9008715,84.7227197 C46.4559182,84.7077509 46.0108346,84.7077509 45.5658814,84.7077509 C45.3433396,84.7077509 45.1357904,84.7077509 44.9132486,84.7227197 C23.8204054,84.1251488 6.86603154,66.6905467 6.86603154,45.3268927 L6.86590117,45.3268927 Z"></path>
                            <path d="M66.9820025,56 C65.8964826,56 64.8853259,56.5844522 64.3649141,57.558671 C60.8110323,64.123056 53.8966914,68.5892351 45.9710631,68.5892351 C38.0454348,68.5892351 31.1310939,64.123056 27.577212,57.558671 C27.0568003,56.5994686 26.0456436,56 24.9601237,56 C22.6999526,56 21.287313,58.4429233 22.3728329,60.4361464 C26.9378714,68.8588708 35.8001625,74.5839208 45.9859619,74.5839208 C56.1717612,74.5839208 65.0340523,68.8588708 69.5990908,60.4361464 C70.6548132,58.4427916 69.2421736,56 66.9820025,56 L66.9820025,56 Z M103,114 L115.026125,114 C116.676622,114 118,112.651163 118,111.002657 C118,109.354152 116.661724,108.005314 115.026125,108.005314 L103,108.005314 L103,96.0087156 C103,94.3539551 101.649967,93 100,93 C98.350033,93 97,94.3539551 97,96.0087156 L97,108.005314 L85.3907523,108.005314 C83.7551538,108.005314 82.4168774,109.354152 82.4168774,111.002657 C82.4168774,112.651163 83.7551538,114 85.3907523,114 L97,114 L97,125.991284 C97,127.646045 98.3350033,129 100,129 C101.649967,129 103,127.646045 103,125.991284 L103,114 Z"></path>
                        </g>
                    </g>
                </g>
                <text id="添加客户" font-family="PingFangSC-Regular, PingFang SC" font-size="36" font-weight="normal" line-spacing="40" fill="#FFFFFF">
                    <tspan x="35" y="88">添加客户</tspan>
                </text>
                <text id="Add-client" font-family="PingFangSC-Regular, PingFang SC" font-size="20" font-weight="normal" fill="#FFFFFF">
                    <tspan x="60.31" y="113">Add client</tspan>
                </text>
                <g id="添加人群" transform="translate(70.000000, 175.000000)" fill-rule="nonzero" fill="#FFFFFF">
                    <path d="M66.6660847,54.8175825 C66.6660847,55.9800874 65.733785,56.9228932 64.5841433,56.9228932 C63.4345016,56.9228932 62.5022932,55.9800874 62.5022932,54.8175825 C62.5022932,44.8247816 55.6010684,36.5021359 46.3671792,34.3467427 L46.3671792,34.2422427 C45.1335375,33.8561553 44.2202997,32.7364466 44.2202997,31.3619903 C44.2202997,29.8641262 45.304456,28.6758883 46.7098371,28.4119175 C51.0874137,26.4483689 54.1745277,22.0745874 54.1745277,16.9201456 C54.1745277,9.94317961 48.5820065,4.28763592 41.6827883,4.28763592 L41.6827883,4.26116505 C40.596899,4.18959223 39.7311792,3.29852913 39.7311792,2.18223301 C39.7311792,1.06593689 40.596899,0.174966019 41.6827883,0.103393204 L41.6827883,0.0768300971 C41.7123388,0.0768300971 41.7397915,0.085684466 41.7695244,0.085684466 C41.7849381,0.085223301 41.797798,0.0768300971 41.8128469,0.0768300971 C41.8590879,0.0768300971 41.8974853,0.100441748 41.9427231,0.103393204 C51.0181889,0.247368932 58.3384104,7.70763592 58.3384104,16.9201456 C58.3384104,22.9825291 55.143127,28.2521699 50.3903322,31.2187524 C59.8767687,34.8026505 66.6660847,43.9742087 66.6660847,54.8175825 L66.6660847,54.8175825 Z M33.7346189,31.2188447 C43.2214202,34.8025583 50.0105537,43.974301 50.0105537,54.8175825 C50.0105537,55.9800874 49.0782541,56.9228932 47.9285212,56.9228932 C46.7788795,56.9228932 45.846671,55.9800874 45.846671,54.8175825 C45.846671,43.1899515 36.5254072,33.7634612 25.0271661,33.7634612 C13.5289251,33.7634612 4.20775244,43.1898592 4.20775244,54.8175825 C4.20775244,55.9800874 3.27545277,56.9228932 2.12581107,56.9228932 C0.976078176,56.9228932 0.0438697068,55.9800874 0.0438697068,54.8175825 C0.0438697068,43.974301 6.83300326,34.8025583 16.3197134,31.2188447 C11.5670098,28.2524466 8.37163518,22.9825291 8.37163518,16.9201456 C8.37163518,7.61798544 15.8287557,0.0768300971 25.0271661,0.0768300971 C34.2256678,0.0768300971 41.6826971,7.61798544 41.6826971,16.9201456 C41.6828795,22.9825291 38.4875961,28.2523544 33.7348013,31.2188447 L33.7346189,31.2188447 Z M25.0269837,4.28772816 C18.1278567,4.28772816 12.5352443,9.94327184 12.5352443,16.9201456 C12.5352443,23.8970194 18.1278567,29.5525631 25.0269837,29.5525631 C31.926202,29.5525631 37.5187231,23.8971117 37.5187231,16.9201456 C37.5187231,9.94317961 31.9262932,4.28772816 25.0269837,4.28772816 L25.0269837,4.28772816 Z" id="Shape"></path>
                    <path d="M82.1302932,30.1140777 L67.9934853,30.1140777 C66.9860326,30.1140777 66.1693811,29.2882233 66.1693811,28.2694175 C66.1693811,27.2506117 66.9860326,26.4247573 67.9934853,26.4247573 L82.1302932,26.4247573 C83.1377459,26.4247573 83.9543974,27.2506117 83.9543974,28.2694175 C83.9543974,29.2882233 83.1377459,30.1140777 82.1302932,30.1140777 Z" id="Shape"></path>
                    <path d="M75.3355049,37.0776699 C74.3280521,37.0776699 73.5114007,36.2518155 73.5114007,35.2330097 L73.5114007,20.9368932 C73.5114007,19.9180874 74.3280521,19.092233 75.3355049,19.092233 C76.3429577,19.092233 77.1596091,19.9180874 77.1596091,20.9368932 L77.1596091,35.2330097 C77.1596091,36.2518155 76.3429577,37.0776699 75.3355049,37.0776699 Z" id="Shape"></path>
                </g>
            </g>
        </g>
    </g>
</svg>