<?xml version="1.0" encoding="UTF-8" standalone="no"?>
<svg width="24px" height="24px" viewBox="0 0 24 24" version="1.1" xmlns="http://www.w3.org/2000/svg" xmlns:xlink="http://www.w3.org/1999/xlink">
    <!-- Generator: Sketch 46.2 (44496) - http://www.bohemiancoding.com/sketch -->
    <title>ts</title>
    <desc>Created with Sketch.</desc>
    <defs></defs>
    <g id="Page-1-Copy-2" stroke="none" stroke-width="1" fill="none" fill-rule="evenodd">
        <g id="弹窗－上传头像" transform="translate(-30.000000, -791.000000)" fill-rule="nonzero" fill="#999999">
            <g id="我的" transform="translate(0.000000, 128.000000)">
                <g id="Group-7" transform="translate(30.000000, 660.000000)">
                    <g id="警示-copy" transform="translate(0.000000, 3.000000)">
                        <g id="提示">
                            <path d="M12,0.0263624161 C18.6018792,0.0263624161 23.9736107,5.39720805 23.9736107,11.9999732 C23.9736107,18.6018523 18.6019329,23.9735839 12,23.9735839 C5.39726174,23.9735839 0.0263892617,18.6027383 0.0263892617,11.9999732 C0.0263892617,5.39720805 5.3972349,0.0263624161 12,0.0263624161 Z M12,22.2554899 C17.6551946,22.2554899 22.2554899,17.6552483 22.2554899,12 C22.2554899,6.34566443 17.6552483,1.74451007 12,1.74451007 C6.34566443,1.74451007 1.74451007,6.34475168 1.74451007,12 C1.74451007,17.6552483 6.34563758,22.2554899 12,22.2554899 Z" id="Shape"></path>
                            <path d="M13.2885906,17.5838926 C13.2885906,16.8722416 12.7116779,16.295302 12,16.295302 C11.2883221,16.295302 10.7114094,16.8722148 10.7114094,17.5838926 C10.7114094,18.2955705 11.2883221,18.8724832 12,18.8724832 C12.7116779,18.8724832 13.2885906,18.2955705 13.2885906,17.5838926 Z" id="Shape"></path>
                            <path d="M12,5.12751678 C12.4742282,5.12751678 12.8590872,5.51148993 12.8590872,5.98660403 L12.8590872,13.7181208 C12.8590872,14.192349 12.4742282,14.5772081 12,14.5772081 C11.5257718,14.5772081 11.1409128,14.192349 11.1409128,13.7181208 L11.1409128,5.98660403 C11.1409128,5.51151678 11.5257718,5.12751678 12,5.12751678 Z" id="Shape"></path>
                        </g>
                    </g>
                </g>
            </g>
        </g>
    </g>
</svg>