<?xml version="1.0" encoding="UTF-8" standalone="no"?>
<svg width="50px" height="50px" viewBox="0 0 50 50" version="1.1" xmlns="http://www.w3.org/2000/svg" xmlns:xlink="http://www.w3.org/1999/xlink">
    <!-- Generator: Sketch 46.2 (44496) - http://www.bohemiancoding.com/sketch -->
    <title>wenhao</title>
    <desc>Created with Sketch.</desc>
    <defs></defs>
    <g id="Page-1-Copy-2" stroke="none" stroke-width="1" fill="none" fill-rule="evenodd">
        <g id="01输入手机号码－未输入" transform="translate(-650.000000, -550.000000)">
            <g id="问号-(5)" transform="translate(650.000000, 550.000000)">
                <rect id="wenhao" x="0" y="0" width="50" height="50"></rect>
                <path d="M27.1415677,33.7875613 C25.4026381,33.7875613 23.9968865,35.1688847 23.9968865,36.8683252 C23.9968865,38.5680106 25.4076585,39.9491503 27.1415677,39.9491503 C28.8801912,39.9491503 30.2859428,38.5680105 30.2859428,36.8683252 C30.2859428,35.1688848 28.8751709,33.7875613 27.1415677,33.7875613 Z" id="Shape" fill="#C71628" fill-rule="nonzero"></path>
                <path d="M33.9935736,14.269465 C32.3185,12.7905513 30.0704974,12.0508497 27.2393416,12.0508497 C24.5505302,12.0508497 22.3759346,12.7807556 20.7202689,14.2403226 C19.0648481,15.6998283 18.0998441,17.7127941 18.0460286,19.5691503 C17.9922132,21.4254452 22.4050769,21.038513 22.5667681,20.122549 C22.7382549,19.1527696 23.4631405,17.5853269 24.3056364,16.8753186 C25.1479486,16.1650041 26.1961553,15.8074592 27.4500727,15.8074592 C28.7479486,15.8074592 29.7863595,16.1504329 30.5504281,16.8312989 C31.314558,17.5169403 31.7012453,18.3348244 31.7012453,19.2897877 C31.7012453,19.975674 31.4810245,20.6075612 31.0500727,21.1805515 C30.7707101,21.5428718 29.9088064,22.3069404 28.4736676,23.477594 C27.0384675,24.6432884 26.0784838,25.6962705 25.5985532,26.631826 C25.1185614,27.5673815 24.878688,28.7574429 24.878688,30.2071529 C24.878688,30.3492525 24.8884837,30.741205 24.8982795,31.3828879 L29.3747543,31.3828879 C29.3503873,30.0261151 29.4680588,29.0855393 29.717728,28.561589 C29.9676421,28.0325572 30.6140393,27.3371201 31.6524502,26.4751552 C33.6603956,24.8049183 34.9683733,23.4874509 35.5853832,22.5176715 C36.1976177,21.5478921 36.5061227,20.5192769 36.5013472,19.4318261 C36.5013472,17.4679003 35.6685859,15.7486235 33.9935736,14.269465 Z" id="Shape" fill="#C71628" fill-rule="nonzero"></path>
            </g>
        </g>
    </g>
</svg>