<?xml version="1.0" encoding="UTF-8" standalone="no"?>
<svg width="52px" height="52px" viewBox="0 0 52 52" version="1.1" xmlns="http://www.w3.org/2000/svg" xmlns:xlink="http://www.w3.org/1999/xlink">
    <!-- Generator: Sketch 46.2 (44496) - http://www.bohemiancoding.com/sketch -->
    <title>wyfwgj-icon</title>
    <desc>Created with Sketch.</desc>
    <defs></defs>
    <g id="Page-1-Copy-2" stroke="none" stroke-width="1" fill="none" fill-rule="evenodd">
        <g id="弹窗－上传头像" transform="translate(-629.000000, -687.000000)" stroke="#C81528">
            <g id="我的" transform="translate(0.000000, 128.000000)">
                <g id="Group-Copy" transform="translate(630.000000, 560.000000)">
                    <g id="电话icon" transform="translate(11.000000, 11.000000)" stroke-width="0.5" fill="#C81528" fill-rule="nonzero">
                        <path d="M27.9593101,21.6629868 C27.9571653,21.6304213 27.953324,21.5979897 27.9478018,21.5658242 C27.9119545,20.913817 27.6360654,20.2981469 27.1732961,19.8374485 C27.0420627,19.7074122 26.8972104,19.5918831 26.7412433,19.4928584 L21.7680323,15.6250976 C21.2740572,15.1503289 20.6149722,14.8860111 19.9298349,14.8879116 C19.3517916,14.8879116 18.7990664,15.0763182 18.3306804,15.4329097 C18.2989505,15.4570771 18.2687002,15.4838749 18.2400939,15.5119879 L16.8982312,16.8642081 C16.862177,16.8936424 16.8284303,16.9257952 16.7972873,16.9603842 C16.7607897,17.0013208 16.681876,17.0698771 16.5631765,17.0698771 C16.4148844,17.0698771 16.3305453,16.9730433 16.3011171,16.9314492 C16.193253,16.7788436 16.039281,16.6648628 15.8618305,16.6062587 C14.1221108,15.3130595 12.6076242,13.806793 11.3538818,12.1231351 C11.2971859,11.9366265 11.1795526,11.7745334 11.0198136,11.6628048 C10.9769042,11.6327189 10.8769468,11.5462426 10.8769468,11.3926896 C10.8769468,11.2672496 10.9510928,11.1852121 10.995153,11.1473993 C11.0294659,11.1180189 11.0614556,11.0860293 11.090836,11.0517163 L12.4414121,9.71149763 C12.4693607,9.68371341 12.4956653,9.65395635 12.5196683,9.62239084 C12.8762598,9.15630644 13.0648308,8.60308809 13.0648308,8.02224993 C13.0648308,7.33208332 12.803429,6.68203121 12.3274804,6.18454571 L8.4584044,1.20969066 C8.35022679,1.04282094 8.23728147,0.901433779 8.11463633,0.779281853 C7.61710213,0.278831038 6.94003429,-0.00177589876 6.23435156,8.45813777e-06 C4.81308183,8.45813777e-06 3.23677945,0.790296899 2.01789064,2.11374644 C0.7168,3.52728919 0,5.30810974 0,7.12888038 C0,8.11135672 0.201723303,9.06835048 0.599744587,9.97733837 C0.614376514,10.0575674 0.640516697,10.1368099 0.678493945,10.2122712 C2.00292991,12.8493061 3.65469358,15.3510367 5.58808073,17.6474272 C5.78830066,17.8869605 6.101317,18.0011532 6.40874468,17.9468168 C6.71617237,17.8924804 6.97108128,17.6779095 7.07706301,17.3842565 C7.18304474,17.0906035 7.12392073,16.7626956 6.92205211,16.5245501 C5.1205167,14.3848363 3.57577982,12.0598397 2.32828477,9.61071818 C2.31424238,9.54767836 2.29317675,9.48641157 2.26548257,9.42806571 C1.91941284,8.69597616 1.74366532,7.9224569 1.74366532,7.12888038 C1.74366532,5.74706754 2.29671927,4.38564075 3.30073248,3.29548002 C4.18210055,2.33865066 5.30629284,1.74416699 6.23468037,1.74416699 C6.47881982,1.74416699 6.70882055,1.83952112 6.88292404,2.0136246 C6.92188771,2.05242387 6.96282422,2.10618387 7.00787083,2.17802827 C7.02332477,2.20236002 7.03992954,2.22619855 7.05768514,2.24905066 L10.9815075,7.29427048 C11.003702,7.32287672 11.0275406,7.35000332 11.0531875,7.37565029 C11.2253899,7.54690208 11.3219922,7.77988394 11.3214943,8.02274314 C11.3211549,8.20157445 11.2663931,8.37606681 11.1644888,8.5230235 L9.81259743,9.86455745 C9.80573281,9.8712844 9.79899115,9.87813569 9.79237578,9.88510791 C9.37248881,10.2777039 9.13361028,10.8222088 9.13361028,11.3930184 C9.13361028,11.9373589 9.34930789,12.4557237 9.72398385,12.8399351 C9.73927339,12.8665685 9.75587817,12.8922154 9.77396257,12.9173692 C11.2180844,14.9124077 12.9938084,16.6812268 15.0521424,18.175163 C15.0717064,18.1893017 15.0915993,18.2026184 15.1119853,18.2149486 C15.4981288,18.5977663 16.019599,18.8129583 16.5633409,18.8138712 C17.1055442,18.8138712 17.6278547,18.5953787 18.0138745,18.2108385 C18.0331097,18.1945626 18.0516873,18.1774646 18.0699361,18.1590514 L19.4287325,16.7903908 C19.5433218,16.7121347 19.7138084,16.6317413 19.9299993,16.6317413 C20.1744675,16.6317413 20.4047971,16.7270954 20.5784073,16.9005413 C20.6037255,16.9256951 20.6306877,16.949698 20.6591295,16.9718925 L25.7038561,20.8955505 C25.7278591,20.9139637 25.7528484,20.9315549 25.7786598,20.947502 C25.8473806,20.9904114 25.9004829,21.0308547 25.9401042,21.070476 C26.1124008,21.2420012 26.2090002,21.4752722 26.208411,21.7183908 C26.208411,21.7565325 26.2110415,21.7941809 26.2156448,21.8310074 C26.1738862,22.7385156 25.5884448,23.813058 24.6667978,24.6617097 C23.5764727,25.665723 22.2150459,26.2187769 20.8333974,26.2187769 C20.0378481,26.2187769 19.2644932,26.0435226 18.5350341,25.6977817 C18.477083,25.6702398 18.4162691,25.6491782 18.3536969,25.6349795 C16.0280426,24.4507798 13.8113879,22.9961362 11.7611097,21.3096833 C11.3487969,20.970328 10.9437783,20.6222061 10.546331,20.2655556 C10.1871479,19.9515415 9.64227553,19.9845547 9.32363222,20.3396375 C9.00498891,20.6947203 9.03093693,21.2399748 9.38185982,21.5631938 C9.79782771,21.9365097 10.2217579,22.3008573 10.6533578,22.655985 C12.8562026,24.4678778 15.2441659,26.024945 17.7506642,27.2836195 C17.8253035,27.3211035 17.9035596,27.3470793 17.9828022,27.3618756 C18.8808148,27.7583206 19.8517689,27.9627143 20.8333974,27.961949 C22.6540037,27.961949 24.4348242,27.2453134 25.8478738,25.9440584 C27.1716521,24.7250052 27.9616117,23.1487028 27.9616117,21.7277619 C27.9616117,21.7057318 27.9607897,21.6845237 27.9593101,21.6629868 L27.9593101,21.6629868 Z" id="Shape"></path>
                    </g>
                    <circle id="Oval" cx="25" cy="25" r="25"></circle>
                </g>
            </g>
        </g>
    </g>
</svg>