<?xml version="1.0" encoding="UTF-8" standalone="no"?>
<svg width="36px" height="36px" viewBox="0 0 36 36" version="1.1" xmlns="http://www.w3.org/2000/svg" xmlns:xlink="http://www.w3.org/1999/xlink">
    <!-- Generator: Sketch 46.2 (44496) - http://www.bohemiancoding.com/sketch -->
    <title>wygs_icon</title>
    <desc>Created with Sketch.</desc>
    <defs></defs>
    <g id="Page-1-Copy-2" stroke="none" stroke-width="1" fill="none" fill-rule="evenodd">
        <g id="弹窗－上传头像" transform="translate(-30.000000, -390.000000)">
            <g id="我的" transform="translate(0.000000, 128.000000)">
                <g id="Group-10" transform="translate(30.000000, 260.000000)">
                    <rect id="Rectangle" x="0" y="2" width="36" height="36"></rect>
                    <g id="物业-(1)" transform="translate(1.000000, 3.000000)" stroke="#333333" stroke-width="0.3" fill="#333333" fill-rule="nonzero">
                        <path d="M29.6593877,33.9990974 L4.25610944,33.9990974 C3.74179987,34.0001916 3.24824371,33.7939542 2.88457112,33.4259863 C2.52089853,33.0580184 2.31706857,32.5586328 2.31815005,32.0382487 C2.31815005,31.0126112 3.12320371,30.1373618 4.13710772,30.0774 L4.13710772,19.7598543 L3.00396303,20.9063826 C2.70574192,21.208126 2.28828013,21.3889786 1.8710573,21.3889787 C1.45359551,21.3889787 1.03613372,21.208126 0.737912606,20.9063826 L0.469561388,20.6346201 C0.168918327,20.3306524 5.20499834e-17,19.9182479 0,19.4882127 C-5.20499834e-17,19.0581774 0.168918327,18.645773 0.469561388,18.3418053 L15.1091599,3.52978165 C15.6159925,3.0169629 16.2719356,2.74544218 16.9873795,2.74544218 C17.6731925,2.74544218 18.3590056,3.04718558 18.8658381,3.52978165 L22.8014967,7.5119244 L22.8014967,1.62913661 C22.7997096,1.19659806 22.9687057,0.781245946 23.2709442,0.475346936 C23.5731827,0.169447927 23.9836361,-0.0016675481 24.4111261,1.22517855e-05 C25.2761585,1.22517855e-05 25.9617326,0.663944508 26.0217113,1.50824579 C27.0351375,1.62913657 28.198152,1.9006573 29.4500595,2.26260436 C29.8973911,2.41347608 30.3748317,2.47367968 30.8216855,2.47367968 C31.7758497,2.47367968 32.5211636,2.17193627 32.9981262,1.93063823 L33.9823993,1.38759679 L33.9823993,8.83906356 L33.4755667,8.95971256 C31.5971082,9.47253132 29.6591488,9.4423086 27.7806903,8.86928625 C27.1245082,8.68819184 26.5579359,8.53732012 26.0217113,8.41667112 L26.0217113,10.7394668 L33.5051977,18.3118244 C33.8031798,18.6130842 33.9823993,19.0354767 33.9823993,19.4578691 C33.9823993,19.8802615 33.8031798,20.3028958 33.5051977,20.6046392 L33.2368465,20.8759181 C32.9386254,21.1774197 32.5507945,21.3582724 32.1039407,21.3582724 C31.686479,21.3582724 31.2690172,21.1774198 30.971035,20.8759181 L29.7781505,19.7596125 L29.7781505,30.1076227 C30.7920545,30.1673428 31.5672383,31.0121276 31.5672383,32.0679878 C31.5973471,33.1243316 30.7323147,33.9990974 29.6593877,33.9990974 L29.6593877,33.9990974 Z M4.25610944,31.4649845 C3.92825736,31.4649845 3.65966718,31.7362635 3.65966718,32.0682296 C3.65966718,32.4001957 3.92825736,32.6714747 4.25610944,32.6714747 L29.6593877,32.6714747 C29.9870009,32.6714747 30.2553521,32.4001957 30.2553521,32.0682296 C30.2553521,31.7362635 29.9870009,31.4649845 29.6593877,31.4649845 L28.4363944,31.4649845 L28.4363944,16.4713829 L31.8654594,19.9409487 C31.9550691,20.031375 32.1335717,20.031375 32.2236593,19.9409487 L32.4915326,19.669428 C32.5510335,19.6089826 32.5510335,19.5185563 32.5510335,19.4883336 C32.5510335,19.4581109 32.5510335,19.3674428 32.4915326,19.3074809 L24.6202154,11.3431955 L24.6202154,6.90843758 L25.3657682,6.9988639 C26.1411909,7.08953199 27.0650074,7.3006073 28.1087813,7.60235071 C29.5695391,8.05472406 31.0606447,8.11516946 32.5809034,7.81342606 L32.5809034,3.56000437 C32.0740708,3.71063431 31.4781065,3.83128331 30.7624236,3.83128331 C30.1662203,3.83128331 29.599409,3.740857 29.0034447,3.56000437 C27.5723178,3.13761193 26.3201714,2.86584943 25.2462886,2.8056458 L24.6202154,2.77542312 L24.6202154,1.62913661 C24.6202154,1.47826489 24.5012137,1.35761589 24.3521032,1.35761589 C24.2029926,1.35761589 24.083752,1.47826489 24.0837519,1.62913661 L24.0837519,10.800154 L17.852412,4.49497375 C17.6079206,4.24523128 17.2752948,4.10413763 16.9278787,4.10280403 C16.5701567,4.10280403 16.2420657,4.25367575 16.0035844,4.49497375 L1.42372561,19.3074809 C1.33435486,19.3979073 1.33435486,19.5787599 1.42372561,19.669428 L1.69207683,19.9409487 C1.78168654,20.031375 1.96066701,20.031375 2.04979884,19.9409487 L5.47862488,16.4713829 L5.47862488,31.4347618 L4.25610944,31.4347618 L4.25610944,31.4649845 L4.25610944,31.4649845 Z M21.0124089,31.4649845 L12.9026104,31.4649845 L12.9026104,22.8372503 L21.0124089,22.8372503 L21.0124089,31.4649845 L21.0124089,31.4649845 Z M14.2443665,30.1078645 L19.6706528,30.1078645 L19.6706528,24.1941286 L14.2443665,24.1941286 L14.2443665,30.1078645 L14.2443665,30.1078645 Z" id="Shape"></path>
                    </g>
                </g>
            </g>
        </g>
    </g>
</svg>