<?xml version="1.0" encoding="UTF-8" standalone="no"?>
<svg width="214px" height="300px" viewBox="0 0 214 300" version="1.1" xmlns="http://www.w3.org/2000/svg" xmlns:xlink="http://www.w3.org/1999/xlink">
    <!-- Generator: Sketch 46.2 (44496) - http://www.bohemiancoding.com/sketch -->
    <title>zf_btn</title>
    <desc>Created with Sketch.</desc>
    <defs>
        <rect id="path-1" x="0" y="0" width="214" height="300" rx="10"></rect>
    </defs>
    <g id="Page-1-Copy-2" stroke="none" stroke-width="1" fill="none" fill-rule="evenodd">
        <g id="首页－彩块" transform="translate(-40.000000, -518.000000)">
            <g id="发布租赁" transform="translate(40.000000, 518.000000)">
                <g id="租房">
                    <mask id="mask-2" fill="white">
                        <use xlink:href="#path-1"></use>
                    </mask>
                    <use id="Mask" fill="#4AC791" xlink:href="#path-1"></use>
                    <g id="计算器-(1)" opacity="0.55" mask="url(#mask-2)">
                        <g transform="translate(135.415761, 231.708381) rotate(-38.000000) translate(-135.415761, -231.708381) translate(81.415761, 170.208381)" id="Page-1" opacity="0.100600091">
                            <g transform="translate(-0.000000, -0.000000)">
                                <path d="M50.0747947,79.697187 C49.8842872,79.483433 49.4085853,78.9601043 49.0048907,78.5082158 L43.8453114,73.0396287 C43.4410498,72.6115537 42.9891614,72.1834787 42.8700942,72.0649785 C42.8224673,72.0173516 42.7272135,71.9697247 42.6087133,71.9697247 C42.2282652,71.9697247 41.6573096,72.4448596 41.4911824,72.5877403 L41.3244883,72.7306209 C41.2059881,72.8491212 41.1107343,72.8729346 41.0631075,72.8729346 C41.0631075,72.8729346 41.039294,72.8729346 41.039294,72.8491212 C41.0154806,72.8258747 40.9916671,72.7544344 40.9916671,72.5639268 L40.9916671,69.3780283 C40.9916671,68.9261399 41.3483018,68.5695053 41.8001902,68.5695053 L48.1249273,68.5695053 C48.8858235,68.5695053 49.503839,67.9514897 49.503839,67.1905935 L49.503839,64.3845761 C49.503839,63.6236799 48.8858235,63.0056644 48.1249273,63.0056644 L41.8001902,63.0056644 C41.3483018,63.0056644 40.9916671,62.6490297 40.9916671,62.1971413 L40.9916671,56.6809273 C40.9916671,56.2528523 41.0631075,55.9438445 41.1107343,55.8247773 C41.3483018,55.8009639 41.895444,55.753337 42.4182058,55.7062771 L47.1735235,55.2543887 C47.7682926,55.2067618 48.4101216,55.1353214 48.6006292,55.111508 C48.7191294,55.111508 48.8143832,55.0400677 48.8858235,54.9453809 C49.1233909,54.6125597 48.9810773,53.8992904 48.9334504,53.6849694 L48.1963676,50.5461308 C48.0773004,50.0948093 47.839733,49.3100997 47.411658,49.3100997 L47.3640311,49.3100997 C47.2211504,49.3339131 46.6269483,49.4053535 46.0327462,49.4767938 L28.936962,51.0456461 C28.342193,51.093273 27.700364,51.1408999 27.48661,51.1408999 C27.3199159,51.1408999 27.1537888,51.2361536 27.058535,51.3784673 C26.9632812,51.521348 26.9156543,51.6880421 26.9632812,51.8541692 C27.0109081,52.0441097 27.1537888,52.6626923 27.2961024,53.2568944 L27.6527371,54.9924408 C27.7479909,55.5633964 27.8670581,56.181412 27.8908715,56.3242926 C27.9379314,56.609487 28.1760658,56.823808 28.4612602,56.823808 L28.5088871,56.823808 C28.6512007,56.823808 29.2697833,56.7761811 29.8639854,56.7285542 L33.7637202,56.4433599 C34.3102954,56.395733 34.9044975,56.3481061 35.1426319,56.3481061 C35.1902588,56.4433599 35.2855126,56.7285542 35.2855126,57.1328157 L35.2855126,62.2447682 C35.2855126,62.6966566 34.9283109,63.0532913 34.4769895,63.0532913 L27.8908715,63.0532913 C27.1299753,63.0532913 26.5113928,63.6713068 26.5113928,64.432203 L26.5113928,67.2376534 C26.5113928,67.9985496 27.1299753,68.6171321 27.8908715,68.6171321 L33.6208395,68.6171321 C34.0012876,68.6171321 34.2150416,68.7118189 34.2864819,68.7594458 C32.9790105,74.1095327 26.3690791,85.3324682 26.2976388,85.427155 C26.1785716,85.5938491 26.1547581,85.8081701 26.2500119,85.9981107 C26.2976388,86.0933644 26.5113928,86.5923128 26.7257138,87.139455 L27.7718043,89.7311513 C27.9855583,90.2777266 28.2707526,90.9677494 28.3660064,91.2529438 C28.4612602,91.5143246 28.6512007,91.6572053 28.8893352,91.6572053 C29.0792757,91.6572053 29.2459698,91.5619515 29.365037,91.372011 C29.5311642,91.1338765 29.9592391,90.515861 30.2920604,89.9925322 L34.0251011,83.5731084 C34.3102954,83.0259662 34.7383704,82.1460027 34.9997513,81.5994275 L35.2855126,81.0046584 L35.2855126,99.9788697 C35.2855126,100.739766 35.9035281,101.358348 36.6644243,101.358348 L39.6365688,101.358348 C40.397465,101.358348 41.0154806,100.739766 41.0154806,99.9788697 L41.0154806,78.199208 C41.0154806,78.0563274 41.039294,77.9616406 41.0631075,77.9140137 C41.0869209,77.9378272 41.1107343,77.9378272 41.1345478,77.985454 C41.4435556,78.3420887 42.0377577,79.0315446 42.4182058,79.483433 L44.9860887,82.5978912 C45.3665368,83.073593 45.7469849,83.5492949 45.8660521,83.6916086 C45.913679,83.7392355 46.0089328,83.8344893 46.1988733,83.8344893 C46.6031349,83.8344893 47.1264636,83.3826008 47.2925908,83.2635336 L49.6229063,81.2666063 C50.0033544,80.9337851 50.2647353,80.5295235 50.2885487,80.1967023 C50.2171084,79.910941 50.145668,79.7924408 50.0747947,79.697187 L50.0747947,79.697187 Z" id="Fill-1" fill="#000000"></path>
                                <path d="M72.7104362,64.0517549 C72.7104362,64.5036433 72.3538016,64.860278 71.9019131,64.860278 L58.9910581,64.860278 C58.5391696,64.860278 58.182535,64.5036433 58.182535,64.0517549 L58.182535,56.7523676 C58.182535,56.3004792 58.5391696,55.9438445 58.9910581,55.9438445 L71.9019131,55.9438445 C72.3538016,55.9438445 72.7104362,56.3004792 72.7104362,56.7523676 L72.7104362,64.0517549 Z M72.7104362,78.4844024 C72.7104362,78.9362908 72.3538016,79.2929255 71.9019131,79.2929255 L58.9910581,79.2929255 C58.5391696,79.2929255 58.182535,78.9362908 58.182535,78.4844024 L58.182535,71.1850151 C58.182535,70.7331267 58.5391696,70.376492 58.9910581,70.376492 L71.9019131,70.376492 C72.3538016,70.376492 72.7104362,70.7331267 72.7104362,71.1850151 L72.7104362,78.4844024 Z M72.7104362,93.0837439 C72.7104362,93.5356324 72.3538016,93.892267 71.9019131,93.892267 L58.9910581,93.892267 C58.5391696,93.892267 58.182535,93.5356324 58.182535,93.0837439 L58.182535,85.6176626 C58.182535,85.1657741 58.5391696,84.8091395 58.9910581,84.8091395 L71.9019131,84.8091395 C72.3538016,84.8091395 72.7104362,85.1657741 72.7104362,85.6176626 L72.7104362,93.0837439 Z M81.912064,93.892267 L79.4632483,93.892267 C79.0113599,93.892267 78.6547252,93.5356324 78.6547252,93.0837439 L78.6547252,51.7589154 C78.6547252,50.9980192 78.0367096,50.3800037 77.2758134,50.3800037 L53.6409712,50.3800037 C52.880075,50.3800037 52.2620594,50.9980192 52.2620594,51.7589154 L52.2620594,93.0599305 C52.2620594,93.5118189 51.9054248,93.8684536 51.4535364,93.8684536 L47.1739204,93.8684536 C46.4130242,93.8684536 45.7944417,94.4864691 45.7944417,95.2473653 L45.7944417,98.0533827 C45.7944417,98.8142789 46.4130242,99.4322945 47.1739204,99.4322945 L81.912064,99.4322945 C82.6729602,99.4322945 83.2909758,98.8142789 83.2909758,98.0533827 L83.2909758,95.2473653 C83.2677293,94.5102826 82.6491468,93.892267 81.912064,93.892267 L81.912064,93.892267 Z" id="Fill-3" fill="#000000"></path>
                                <g id="Group-7" transform="translate(0.000000, 0.356068)" fill="#000000">
                                    <path d="M32.1942442,24.4397366 L33.6207828,18.138813 L39.897893,18.138813 C43.8214412,18.138813 47.3163475,15.5233032 48.2201244,11.9569566 L50.0509246,5.41789849 L57.4931925,5.41789849 L59.1572986,11.5765085 C60.0848889,15.2142954 63.6750489,17.9488724 67.4795299,17.9488724 L73.7566401,17.9488724 L75.3498729,24.4159232 L32.1942442,24.4159232 L32.1942442,24.4397366 Z M27.8193745,27.8399561 C28.7463978,28.9813004 30.1735034,29.6469428 31.7661692,29.6469428 L75.8017613,29.6469428 C77.3944271,29.6469428 78.8209657,28.9813004 79.748556,27.8399561 C80.4618253,26.9599927 80.7946465,25.8424618 80.7470197,24.6534906 L80.6993928,23.4883329 L102.621935,23.4883329 L102.621935,116.980477 L4.96924188,116.980477 L4.96924188,23.5121463 L26.8917842,23.5121463 L26.8441573,24.6773041 C26.773284,25.8424618 27.1299186,26.9599927 27.8193745,27.8399561 L27.8193745,27.8399561 Z M105.903087,20.2548075 C104.833183,19.208717 103.430458,18.6383283 101.932479,18.6383283 L79.2966676,18.6383283 L78.9638464,17.3302899 C78.2743905,14.5724664 75.5398134,12.5035318 72.6629227,12.5035318 L66.2667453,12.5035318 L66.1476781,12.4797183 C65.6725432,12.3850316 65.1730279,11.980203 64.9592739,11.5765085 L64.911647,11.4574412 L63.2707874,5.03745039 C62.5575181,2.27962689 59.8473214,0.210692273 56.9698637,0.210692273 L50.6689401,0.210692273 C47.7682359,0.210692273 45.0574723,2.27962689 44.3680165,5.03745039 L42.7277238,11.4574412 L42.6800969,11.5765085 C42.4657759,11.980203 41.9668276,12.3850316 41.4911257,12.4797183 L41.3720585,12.5035318 L34.9288212,12.5035318 C32.0275501,12.5035318 29.3173535,14.5724664 28.6278976,17.3302899 L28.2945094,18.6621417 L5.6354513,18.6621417 C2.5442396,18.6621417 0.000170096022,21.1347709 0.000170096022,24.1783557 L0.000170096022,116.385708 C0.000170096022,119.429293 2.52042615,121.901922 5.6354513,121.901922 L101.932479,121.901922 C105.023691,121.901922 107.543947,119.429293 107.543947,116.385708 L107.543947,24.1545423 C107.56776,22.6803768 106.973558,21.2770846 105.903087,20.2548075 L105.903087,20.2548075 Z" id="Fill-5"></path>
                                </g>
                            </g>
                        </g>
                    </g>
                </g>
                <text font-family="PingFangSC-Regular, PingFang SC" font-size="36" font-weight="normal" line-spacing="40" fill="#FFFFFF">
                    <tspan x="35" y="88">发布租赁</tspan>
                </text>
                <text id="Release-lease" font-family="PingFangSC-Regular, PingFang SC" font-size="20" font-weight="normal" fill="#FFFFFF">
                    <tspan x="43.18" y="113">Release lease</tspan>
                </text>
                <g id="行李" transform="translate(67.000000, 174.000000)" fill-rule="nonzero" fill="#FFFFFF">
                    <path d="M76.6572361,7.43879365 L54.7287051,7.43879365 C54.7287051,3.32653968 51.4305114,0.0188571429 47.3300544,0.0188571429 L32.8001741,0.0188571429 C28.6997171,0.0188571429 25.4015234,3.41593651 25.4015234,7.43879365 L3.82955386,7.43879365 C1.95760609,7.43879365 0.0856583243,8.95853968 0.0856583243,11.1934603 L0.0856583243,62.2390476 C0.0856583243,64.116381 1.60104461,65.9937143 3.82955386,65.9937143 L76.2115343,65.9937143 C78.083482,65.9937143 79.9554298,64.4739683 79.9554298,62.2390476 L79.9554298,10.7464762 C80.0445702,8.86914286 78.5291839,7.43879365 76.6572361,7.43879365 Z M32.8001741,3.68412698 L47.3300544,3.68412698 C49.2020022,3.68412698 51.0739499,5.20387302 51.0739499,7.43879365 L29.5019804,7.43879365 C29.5019804,5.20387302 31.0173667,3.68412698 32.8001741,3.68412698 Z M11.3173449,50.9750476 C10.1585201,50.9750476 9.44539717,51.6902222 9.44539717,52.852381 C9.44539717,54.0145397 10.1585201,54.7297143 11.3173449,54.7297143 L11.3173449,62.1496508 L3.82955386,62.1496508 L3.82955386,10.7464762 L11.2282046,10.7464762 L11.2282046,50.9750476 L11.3173449,50.9750476 Z M65.5146899,50.9750476 C64.3558651,50.9750476 63.6427421,51.6902222 63.6427421,52.852381 C63.6427421,54.0145397 64.3558651,54.7297143 65.5146899,54.7297143 L65.5146899,62.1496508 L14.9721001,62.1496508 L14.9721001,54.7297143 C16.1309249,54.7297143 16.8440479,54.0145397 16.8440479,52.852381 C16.8440479,51.779619 16.1309249,50.9750476 14.9721001,50.9750476 L14.9721001,10.7464762 L65.8712514,10.7464762 L65.8712514,50.9750476 L65.5146899,50.9750476 Z M76.6572361,61.7920635 L69.2585854,61.7920635 L69.2585854,54.372127 C70.4174102,54.372127 71.1305332,53.6569524 71.1305332,52.4947937 C71.1305332,51.3326349 70.4174102,50.6174603 69.2585854,50.6174603 L69.2585854,10.7464762 L76.6572361,10.7464762 L76.6572361,61.7920635 Z" id="Shape"></path>
                </g>
            </g>
        </g>
    </g>
</svg>